# Blender 4.0.2
# www.blender.org
mtllib 지형2.mtl
o 아이코스피어.002
v 255.029800 -6.432119 -24.093184
v 139.807144 -96.761276 -102.778336
v 174.128799 -46.786526 -113.151825
v 112.686340 -102.625526 -24.004929
v 135.408936 -93.200180 -41.628868
v 234.828964 -45.402313 -51.933430
v 10.066006 -103.574234 -139.885345
v 24.378119 -56.684505 -155.682541
v 3.651190 -122.807602 -69.043755
v 48.446846 -115.426598 -106.324883
v 97.283096 -48.407639 -136.921249
v 60.670776 -122.431145 -45.865185
v 78.244904 -102.671768 -60.149628
v 254.965256 -5.225186 -23.212635
v 140.385513 6.704416 -90.730186
v 188.808914 7.182446 -44.185539
v 63.640835 6.091178 -105.037949
v 110.174263 17.030117 -40.678452
v 253.387009 -6.115061 -16.014353
v 112.472260 -102.076874 -23.297531
v 161.452805 -97.780159 24.605711
v 243.905167 -43.382191 12.387850
v 152.613586 -91.062683 68.990952
v 184.540543 -43.917358 81.784187
v 81.949265 -115.860634 6.714217
v 103.978920 -107.647064 34.852779
v 32.241421 -116.061897 54.326801
v 62.261063 -107.144638 84.604195
v 124.075043 -46.597870 117.368217
v 25.645187 -85.449348 118.300369
v 66.008507 -49.053669 142.041534
v 254.002686 -6.076754 -17.125568
v 199.094421 7.778800 13.025969
v 162.991364 7.524774 72.886574
v 69.782738 12.930002 29.891346
v 81.797806 7.761844 96.613174
v 52.751999 3.292042 132.641907
v -22.182878 -87.676155 -127.552582
v -54.643112 -51.307758 -148.103363
v 7.371387 -124.260612 -69.566429
v -56.287525 -99.709442 -102.637970
v -123.647675 -49.946297 -119.669800
v -27.714966 -115.674835 -39.879082
v -62.217823 -95.587715 -52.305969
v -137.153900 -84.344673 -69.885239
v -196.964859 -49.548325 -82.236153
v -109.746841 -97.025780 -20.101913
v -185.786469 -103.792213 -28.861345
v -249.727234 -48.665676 -27.448826
v -244.514069 -87.193382 16.320290
v -274.656921 -49.272232 13.344305
v -33.790565 1.365299 -136.779755
v -92.461098 -8.611042 -114.665413
v -84.710976 8.169514 -32.320087
v -159.160828 4.009501 -67.362144
v -200.594772 12.822674 -13.919155
v -256.171936 -5.144378 17.381165
v -42.042946 -100.058731 -27.738377
v -39.631123 -116.999802 61.472408
v -74.925354 -108.215675 117.212479
v -104.671242 -73.005524 127.320572
v -34.440662 -83.929092 128.452637
v -69.945221 -54.506729 152.271500
v -116.654480 -117.729424 16.592331
v -186.367828 -109.469582 35.617779
v -234.171768 -47.827934 61.998486
v -110.598381 -121.544327 53.878262
v -123.502197 -100.558189 78.261375
v -154.369507 -53.136589 118.887146
v -117.971542 -27.361526 141.567703
v -244.506485 -88.479042 18.688564
v -268.199554 -49.158504 29.092001
v -72.161949 12.436781 36.495102
v -58.523380 7.526284 105.335068
v -56.391651 -1.595232 135.169785
v -188.256912 6.940952 44.007206
v -140.708313 10.571832 112.834335
v -115.063507 -1.720505 140.500290
v -256.560150 -4.651013 24.686314
v 19.458736 0.221296 -126.177460
v 15.193244 -9.302306 -135.948792
v 15.291960 -11.622438 -135.971817
v -20.001495 2.561910 -134.061447
v -5.088275 -11.732771 -135.717590
v 25.905556 8.605664 -100.553543
v -21.537699 4.589750 -100.565353
v -21.433018 6.632265 -120.862679
v -37.817608 13.764750 -28.412947
v 32.407940 13.682819 -37.666790
v -23.927946 14.500348 35.773285
v 33.792461 2.381498 29.055182
v -30.608727 5.695063 103.473953
v 31.766876 7.553030 100.275055
v 11.077377 -9.838291 140.142487
v 27.147827 -7.069075 137.108871
v -15.874096 -9.369651 139.626724
v -27.802395 -0.393336 136.471771
v 20.218800 2.626371 115.636627
v -21.331715 0.151683 125.638580
v -10.522661 -2.842165 -31.081549
v 9.530209 -2.807122 -33.579739
v -8.679504 -7.580753 -94.132301
v 10.695159 -7.410645 -94.161667
v -6.218689 -2.424781 37.300964
v 13.650000 -2.304261 35.112240
v -11.258156 -6.264518 105.209541
v 11.779715 -6.481436 104.179581
v 6.643048 -85.295349 121.535034
v 13.835399 -58.819889 152.790634
v -19.402714 -84.365784 125.899811
v -38.295639 -59.188148 156.381454
v -25.386036 -51.095001 -149.804871
vn 0.5529 -0.8032 -0.2219
vn 0.3515 -0.5136 -0.7827
vn 0.1956 -0.4450 -0.8739
vn 0.2754 -0.9470 -0.1654
vn 0.3591 -0.8687 -0.3411
vn 0.1694 -0.9795 0.1088
vn 0.5630 0.5884 -0.5803
vn 0.3418 0.4271 -0.8371
vn 0.2382 0.5238 -0.8179
vn 0.1959 0.5354 -0.8216
vn 0.0697 0.9845 -0.1610
vn 0.2478 -0.9566 -0.1532
vn 0.4712 -0.8702 -0.1438
vn 0.9284 -0.3621 -0.0836
vn 0.6070 -0.6860 0.4011
vn 0.3748 -0.9268 -0.0243
vn 0.2339 -0.9705 -0.0588
vn 0.1549 -0.9767 0.1484
vn 0.2008 -0.9627 0.1817
vn 0.3239 -0.5936 0.7367
vn 0.2766 -0.6846 0.6744
vn 0.9138 -0.3759 0.1539
vn 0.5082 0.4455 0.7370
vn 0.2100 0.9773 -0.0270
vn 0.6982 0.4934 0.5187
vn 0.0763 0.9961 0.0453
vn 0.3406 0.4386 0.8316
vn 0.0351 0.9982 0.0494
vn 0.4822 0.4614 0.7447
vn -0.0457 -0.5221 -0.8517
vn -0.1502 -0.9100 -0.3865
vn 0.3654 0.7259 0.5827
vn -0.2493 -0.9028 -0.3505
vn -0.2957 -0.6487 -0.7013
vn -0.0635 -0.9830 0.1721
vn 0.3801 0.9058 0.1873
vn -0.3920 -0.9183 -0.0551
vn -0.3451 -0.7258 -0.5951
vn -0.0857 -0.9817 -0.1703
vn -0.0943 -0.9711 -0.2192
vn -0.4378 -0.6748 -0.5941
vn -0.6130 -0.6279 -0.4797
vn -0.0649 0.3745 -0.9250
vn -0.3650 0.3518 -0.8620
vn 0.0255 0.9482 -0.3167
vn -0.1993 0.9793 -0.0346
vn -0.0149 0.9928 -0.1188
vn -0.1296 0.9767 -0.1712
vn -0.4244 0.4706 -0.7736
vn -0.5867 0.5823 -0.5628
vn 0.0289 0.9836 -0.1782
vn -0.6375 0.5049 -0.5819
vn -0.1438 -0.9313 0.3347
vn -0.0551 -0.9882 -0.1429
vn 0.0482 -0.9777 0.2042
vn 0.1501 -0.6988 0.6994
vn -0.0971 -0.5377 0.8375
vn 0.2252 -0.7324 0.6426
vn -0.0589 -0.9899 -0.1287
vn -0.0278 -0.9668 -0.2541
vn 0.1072 -0.9800 -0.1680
vn -0.2091 -0.9478 0.2407
vn -0.1317 -0.9525 0.2747
vn -0.4113 -0.6738 0.6139
vn -0.4631 -0.6850 0.5625
vn -0.3468 -0.3701 0.8618
vn -0.3266 -0.9398 -0.1007
vn -0.7847 -0.5703 0.2431
vn -0.4798 -0.5797 0.6586
vn -0.1194 0.9898 0.0771
vn -0.0795 0.9966 -0.0217
vn -0.1238 0.9923 0.0089
vn 0.0004 0.9950 0.0999
vn -0.0550 0.3258 0.9438
vn -0.0863 0.9705 0.2253
vn 0.0347 0.9735 0.2260
vn -0.0022 0.9999 0.0132
vn -0.6262 0.4448 0.6403
vn -0.0113 0.9998 0.0143
vn -0.6431 0.1786 0.7447
vn 0.0076 0.2238 0.9746
vn 0.0494 0.9435 0.3275
vn -0.9202 0.3137 0.2340
vn -0.4520 0.4374 0.7774
vn -0.2194 0.9682 0.1202
vn -0.5295 0.8399 0.1192
vn 0.0146 0.9956 0.0925
vn 0.6106 0.7832 0.1171
vn 0.5829 0.8126 -0.0055
vn -0.6538 0.7560 -0.0310
vn -0.0100 0.9971 -0.0756
vn -0.8207 0.5665 -0.0746
vn -0.0077 0.9949 -0.1005
vn 0.7184 0.6956 -0.0094
vn 0.5937 0.7998 -0.0884
vn -0.4229 0.9018 0.0891
vn -0.0047 1.0000 -0.0064
vn 0.6030 0.7878 0.1256
vn -0.4264 0.9043 -0.0183
vn 0.0067 0.9982 0.0588
vn 0.0604 -0.7599 0.6472
vn 0.1299 0.2360 0.9630
vn -0.1041 -0.7516 0.6514
vn 0.0377 0.2781 0.9598
vn -0.2918 -0.3643 -0.8844
vn 0.0526 0.2497 -0.9669
vt 0.000000 0.000000
vt 0.737203 0.959199
vt 0.730872 0.930875
vt 0.749789 0.908481
vt 0.666667 0.914237
vt 0.666667 0.966154
vt 0.666667 0.936941
vt 0.666667 0.987357
vt 0.500000 0.966358
vt 0.500000 0.915942
vt 0.417312 0.912505
vt 0.446056 0.945880
vt 0.443026 0.960901
vt 0.415906 0.700794
vt 0.500000 0.702178
vt 0.500000 0.604604
vt 0.417082 0.598068
vt 0.666667 0.700861
vt 0.750770 0.695272
vt 0.750144 0.592601
vt 0.666667 0.602553
vt 0.666667 0.723177
vt 0.666667 0.625604
vt 0.724706 0.553212
vt 0.667089 0.535182
vt 0.666667 0.535115
vt 0.666667 0.553183
vt 0.500000 0.532183
vt 0.431746 0.540370
vt 0.441172 0.559782
vt 0.416400 0.805603
vt 0.500000 0.809970
vt 0.666667 0.807068
vt 0.750478 0.799975
vt 0.666667 0.830969
s 0
f 6/1/1 5/1/1 2/1/1 3/1/1
f 11/1/2 10/1/2 7/1/2 8/1/2
f 11/1/3 3/1/3 2/1/3 10/1/3
f 13/1/4 12/1/4 9/1/4 10/1/4
f 13/1/5 5/1/5 4/1/5 12/1/5
f 5/1/6 13/1/6 10/1/6 2/1/6
f 16/1/7 6/1/7 3/1/7 15/1/7
f 16/1/8 14/1/8 1/1/8 6/1/8
f 17/1/9 11/1/9 8/1/9 81/1/9 80/1/9
f 17/1/10 15/1/10 3/1/10 11/1/10
f 18/1/11 16/1/11 15/1/11 17/1/11
f 21/1/12 20/1/12 4/1/12 5/1/12
f 22/1/13 21/1/13 5/1/13 6/1/13
f 19/1/14 22/1/14 6/1/14 1/1/14
f 24/1/15 23/1/15 21/1/15 22/1/15
f 20/1/16 25/1/16 12/1/16 4/1/16
f 21/1/17 26/1/17 25/1/17 20/1/17
f 28/1/18 27/1/18 25/1/18 26/1/18
f 23/1/19 28/1/19 26/1/19 21/1/19
f 24/1/20 29/1/20 28/1/20 23/1/20
f 31/1/21 30/1/21 28/1/21 29/1/21
f 32/1/22 19/1/22 1/1/22 14/1/22
f 32/1/23 33/1/23 22/1/23 19/1/23
f 33/1/24 32/1/24 14/1/24 16/1/24
f 34/1/25 24/1/25 22/1/25 33/1/25
f 35/1/26 33/1/26 16/1/26 18/1/26
f 34/1/27 36/1/27 29/1/27 24/1/27
f 36/1/28 34/1/28 33/1/28 35/1/28
f 37/1/29 31/1/29 29/1/29 36/1/29
f 39/1/30 112/1/30 38/1/30
f 41/1/31 10/1/31 40/1/31
f 10/1/32 9/1/32 40/1/32
f 10/1/33 41/1/33 38/1/33 7/1/33
f 41/1/34 42/1/34 39/1/34 38/1/34
f 12/1/35 43/1/35 9/1/35
f 43/1/36 40/1/36 9/1/36
f 43/1/37 44/1/37 41/1/37 40/1/37
f 46/1/38 42/1/38 41/1/38 45/1/38
f 48/1/39 44/1/39 43/1/39 47/1/39
f 44/1/40 48/1/40 45/1/40 41/1/40
f 48/1/41 49/1/41 46/1/41 45/1/41
f 51/1/42 49/1/42 48/1/42 50/1/42
f 81/1/43 8/1/43 112/1/43 84/1/43 82/1/43
f 42/1/44 53/1/44 52/1/44 39/1/44
f 85/1/45 17/1/45 80/1/45
f 83/1/46 52/1/46 53/1/46 86/1/46 87/1/46
f 18/1/47 17/1/47 85/1/47 89/1/47
f 86/1/48 53/1/48 54/1/48 88/1/48
f 55/1/49 53/1/49 42/1/49 46/1/49
f 49/1/50 56/1/50 55/1/50 46/1/50
f 56/1/51 54/1/51 53/1/51 55/1/51
f 57/1/52 56/1/52 49/1/52 51/1/52
f 25/1/53 58/1/53 43/1/53 12/1/53
f 27/1/54 59/1/54 58/1/54 25/1/54
f 28/1/55 60/1/55 59/1/55 27/1/55
f 30/1/56 108/1/56 110/1/56 62/1/56 60/1/56 28/1/56
f 62/1/57 63/1/57 61/1/57 60/1/57
f 31/1/58 109/1/58 108/1/58 30/1/58
f 58/1/59 64/1/59 47/1/59 43/1/59
f 64/1/60 65/1/60 48/1/60 47/1/60
f 59/1/61 67/1/61 64/1/61 58/1/61
f 67/1/62 68/1/62 65/1/62 64/1/62
f 60/1/63 68/1/63 67/1/63 59/1/63
f 68/1/64 69/1/64 66/1/64 65/1/64
f 61/1/65 69/1/65 68/1/65 60/1/65
f 63/1/66 70/1/66 69/1/66 61/1/66
f 65/1/67 71/1/67 50/1/67 48/1/67
f 71/1/68 72/1/68 51/1/68 50/1/68
f 66/1/69 72/1/69 71/1/69 65/1/69
f 35/1/70 18/1/70 89/1/70 91/1/70
f 54/1/71 73/1/71 90/1/71 88/1/71
f 36/1/72 35/1/72 91/1/72 93/1/72
f 90/1/73 73/1/73 74/1/73 92/1/73
f 75/1/74 63/1/74 111/1/74 96/1/74 97/1/74
f 37/1/75 36/1/75 93/1/75 98/1/75 95/1/75
f 99/1/76 92/1/76 74/1/76 75/1/76 97/1/76
f 76/1/77 73/1/77 54/1/77 56/1/77
f 69/1/78 77/1/78 76/1/78 66/1/78
f 77/1/79 74/1/79 73/1/79 76/1/79
f 70/1/80 78/1/80 77/1/80 69/1/80
f 75/1/81 78/1/81 70/1/81 63/1/81
f 78/1/82 75/1/82 74/1/82 77/1/82
f 72/1/83 79/1/83 57/1/83 51/1/83
f 76/1/84 79/1/84 72/1/84 66/1/84
f 79/1/85 76/1/85 56/1/85 57/1/85
f 95/2/86 98/3/86 93/4/86 107/5/86 94/6/86
f 94/6/87 107/5/87 106/7/87 96/8/87
f 96/9/88 106/10/88 92/11/88 99/12/88 97/13/88
f 88/14/89 100/15/89 102/16/89 86/17/89
f 101/18/90 89/19/90 85/20/90 103/21/90
f 100/22/91 101/18/91 103/21/91 102/23/91
f 103/21/92 85/20/92 80/24/92 81/25/92 82/26/92
f 102/23/93 103/21/93 82/26/93 84/27/93
f 86/17/94 102/16/94 84/28/94 83/29/94 87/30/94
f 90/31/95 104/32/95 100/15/95 88/14/95
f 105/33/96 91/34/96 89/19/96 101/18/96
f 104/35/97 105/33/97 101/18/97 100/22/97
f 92/11/98 106/10/98 104/32/98 90/31/98
f 107/5/99 93/4/99 91/34/99 105/33/99
f 106/7/100 107/5/100 105/33/100 104/35/100
f 108/1/101 109/1/101 111/1/101 110/1/101
f 94/1/102 109/1/102 31/1/102 37/1/102 95/1/102
f 110/1/103 111/1/103 63/1/103 62/1/103
f 96/1/104 111/1/104 109/1/104 94/1/104
f 38/1/105 112/1/105 8/1/105 7/1/105
f 84/1/106 112/1/106 39/1/106 52/1/106 83/1/106
