# Blender 4.0.2
# www.blender.org
mtllib 종유석3.mtl
o 구체.002
v -3.465281 -0.798132 1.248859
v -3.521749 -0.005244 1.338426
v -3.839154 1.547770 1.666882
v -3.793585 -1.244934 0.765760
v -3.790294 0.030984 0.655552
v -4.325842 1.524789 0.755970
v -2.391106 0.547472 2.657503
v -2.556234 1.558008 2.794712
v -2.247661 -2.418999 1.260203
v -2.683294 -1.340875 1.351181
v -2.789980 0.033414 2.002622
v -3.114953 1.565759 2.208086
v -2.550279 -2.747460 0.726085
v -3.268976 -2.013477 0.754671
v -1.176438 -0.923570 2.579990
v -1.640822 -0.043032 2.793793
v -1.712200 1.551308 3.166006
v -1.678788 -2.863542 1.565794
v -1.634332 -1.590790 2.252995
v -1.958853 -0.512373 2.438775
v -0.943639 -5.026137 0.462516
v -0.975436 -4.384220 0.787767
v -1.761602 -3.796012 0.850914
v -1.022280 -0.905089 2.543934
v -0.565872 0.097631 2.639549
v -0.433202 1.551554 3.165900
v -0.474548 -2.859586 1.482929
v -0.571176 -1.508896 2.107751
v -0.245489 -0.356336 2.356736
v -0.924200 -5.394945 0.314684
v -0.347589 -4.676477 0.285983
v -0.457006 -3.739081 0.996603
v 0.101054 0.795997 2.418026
v 0.294437 1.600228 2.639228
v 0.122117 -2.592040 1.284477
v 0.345522 -1.565117 1.422639
v 0.784468 -0.017662 1.969270
v 0.826244 1.600121 2.076605
v 0.057937 -4.176381 0.201557
v 0.340531 -3.219429 0.656589
v 0.965349 -1.584085 0.739595
v 1.202698 -0.607080 1.103613
v -3.901215 2.879175 1.709281
v -4.052939 3.273490 0.920957
v -3.659985 3.762578 0.584278
v -2.502263 3.119254 2.780058
v -2.312355 3.724613 2.626360
v -3.233067 3.243958 2.064936
v -2.673214 3.828765 2.077465
v -3.511087 3.691336 1.342058
v -3.158420 3.838161 0.931856
v -1.714857 3.125373 3.003291
v -1.723283 3.783547 2.690683
v -1.732977 3.831481 2.129917
v -1.731588 3.830621 0.809171
v -0.509700 3.108674 2.896262
v -0.959862 3.751536 2.678138
v -0.121560 3.620222 2.461428
v -0.492352 3.830488 2.083986
v -0.419169 3.830348 0.807075
v 0.343595 2.625957 2.724759
v 0.789694 3.079821 1.930223
v 0.507551 3.816103 1.570762
v 1.312300 3.663611 1.257854
v 0.951902 3.835218 0.865306
v -4.013664 -1.472042 -0.502390
v -4.198233 -0.009139 -0.465782
v -4.591801 1.514246 -0.486633
v -3.689568 -0.991070 -1.106877
v -3.958855 -0.061177 -1.345585
v -4.195638 1.523120 -1.586183
v -2.566822 -2.846258 -0.429389
v -3.266760 -2.114521 -0.450743
v -2.274168 -2.533330 -0.879403
v -2.811412 -1.489081 -1.095603
v -2.915973 0.041318 -1.559497
v -2.917929 1.407366 -2.101326
v -2.460348 1.870959 -2.293018
v -1.542812 -4.814737 -0.035290
v -1.872907 -4.134630 -0.675213
v -1.708055 -3.065415 -1.198245
v -1.724229 -1.723075 -1.599123
v -1.729132 -0.046287 -1.999259
v -1.742147 1.111995 -2.268001
v -1.751505 1.921198 -2.317317
v -1.026897 -5.899473 0.091901
v -0.372860 -4.621871 -0.014362
v -0.480445 -3.665671 -0.654750
v -0.470028 -2.870837 -1.065631
v -0.408311 -1.779831 -1.636287
v -0.414513 -0.108620 -1.946550
v -0.616549 1.627241 -2.086235
v -1.143265 2.226298 -2.158490
v 0.051697 -4.178747 0.156488
v 0.245680 -3.103278 -0.264229
v 0.826755 -1.602831 -0.300268
v 1.089468 -0.051381 -0.685940
v 1.364245 0.917313 -0.997232
v 0.091728 -2.505389 -0.911332
v 0.357630 -1.726584 -1.184090
v 0.620979 -0.066363 -1.332522
v 1.005303 1.518483 -1.514291
v -4.148785 3.100976 -0.483397
v -3.662256 3.781766 -0.479715
v -3.759680 3.270109 -1.213768
v -3.547762 3.695020 -1.016509
v -3.054125 3.841232 -0.495159
v -2.971697 3.272082 -1.916233
v -3.031114 3.831843 -1.238266
v -2.437036 2.397298 -2.237498
v -1.736637 3.831304 -0.477882
v -1.747568 3.357875 -1.984906
v -1.743124 3.832070 -1.320998
v -1.756561 2.373846 -2.246527
v -0.414373 3.830296 -0.476772
v -0.564025 3.209597 -1.908428
v -0.431277 3.829870 -1.196293
v -1.153268 2.242025 -2.157690
v 0.921810 3.834849 -0.480383
v 0.720853 3.226302 -0.879792
v 0.885349 3.820987 -1.011816
v 1.390688 0.397658 1.413621
v 1.512119 1.543262 1.558241
v 2.371953 -2.201438 0.045377
v 2.466869 -0.183563 0.812294
v 2.392653 1.515091 0.762656
v 1.523606 2.745164 1.556372
v 1.940260 3.307377 0.906338
v 1.689226 3.836870 0.498823
v 2.140374 -3.110650 -0.167246
v 2.493770 -0.118493 -0.280571
v 2.286944 1.490986 -0.550495
v 1.422682 2.041023 -1.199989
v 2.124711 3.207092 -0.517242
v 1.759481 3.839921 -0.487347
v 1.538528 3.171340 -1.024738
v 1.515914 3.822925 -0.949322
vn -0.9272 -0.1066 0.3590
vn -0.8464 -0.2701 0.4590
vn -0.3971 -0.4181 0.8170
vn -0.7097 -0.2074 0.6732
vn -0.6465 -0.2345 0.7260
vn -0.5121 -0.2756 0.8135
vn -0.5540 -0.3888 0.7361
vn -0.3449 -0.2280 0.9105
vn -0.6399 -0.3477 0.6853
vn -0.3602 -0.3951 0.8451
vn -0.6607 -0.3161 0.6809
vn -0.6160 -0.3922 0.6831
vn -0.6556 -0.4183 0.6287
vn 0.1613 -0.1662 0.9728
vn 0.0001 -0.3404 0.9403
vn 0.0638 -0.4152 0.9075
vn 0.2518 -0.5597 0.7895
vn 0.4205 -0.3035 0.8550
vn 0.4348 -0.3152 0.8436
vn 0.3602 -0.5365 0.7632
vn -0.0624 -0.6037 0.7947
vn 0.5658 -0.3424 0.7501
vn 0.5734 -0.2305 0.7862
vn 0.4358 -0.4072 0.8027
vn 0.4836 -0.1909 0.8542
vn 0.4877 -0.0703 0.8702
vn 0.5902 -0.4822 0.6475
vn 0.4515 -0.4249 0.7846
vn 0.7521 -0.3167 0.5780
vn 0.6745 -0.3960 0.6231
vn -0.9604 0.1265 0.2481
vn -0.6983 0.0119 0.7157
vn -0.4865 0.0402 0.8727
vn -0.7408 0.3741 0.5580
vn -0.6061 0.5507 0.5739
vn -0.2611 0.9580 0.1184
vn -0.2401 0.9610 0.1375
vn -0.4003 0.0936 0.9116
vn -0.1401 0.4233 0.8951
vn -0.1085 0.9903 0.0865
vn -0.0029 1.0000 -0.0007
vn -0.0000 0.1706 0.9853
vn 0.0872 0.3743 0.9232
vn 0.2893 0.4830 0.8264
vn 0.0058 0.9907 0.1362
vn 0.0002 1.0000 -0.0001
vn 0.5878 -0.0952 0.8034
vn 0.7237 -0.0917 0.6840
vn 0.6349 0.4612 0.6199
vn 0.6389 0.5211 0.5659
vn 0.3933 0.5207 0.7578
vn -0.0046 0.9997 0.0242
vn -0.9396 0.0319 0.3407
vn -0.9483 -0.2422 0.2050
vn -0.9173 -0.3248 -0.2304
vn -0.9234 -0.1888 -0.3342
vn -0.7122 -0.6996 0.0573
vn -0.6423 -0.7273 0.2417
vn -0.5027 -0.4156 -0.7580
vn -0.4430 -0.5706 -0.6915
vn -0.1649 -0.2898 -0.9428
vn -0.1814 -0.1741 -0.9679
vn -0.6679 -0.3624 0.6500
vn -0.9361 -0.3227 0.1399
vn -0.8012 -0.5952 0.0624
vn -0.6758 -0.3217 -0.6632
vn -0.4547 -0.3988 -0.7964
vn -0.3511 -0.2935 -0.8891
vn -0.2190 -0.3600 -0.9069
vn -0.1888 -0.2103 -0.9592
vn 0.5667 -0.4266 0.7049
vn 0.2170 -0.6110 -0.7613
vn 0.1657 -0.4538 -0.8755
vn 0.1458 -0.2815 -0.9484
vn 0.0280 -0.2319 -0.9723
vn 0.0283 -0.2256 -0.9738
vn 0.2781 -0.0552 -0.9590
vn 0.7440 -0.6436 -0.1796
vn 0.9673 -0.2223 -0.1222
vn 0.6522 -0.3698 -0.6617
vn 0.9221 -0.3605 -0.1405
vn 0.6421 -0.3586 -0.6775
vn 0.8077 -0.3246 -0.4921
vn 0.4868 -0.4263 -0.7624
vn 0.8792 -0.1789 -0.4416
vn 0.5085 -0.1553 -0.8469
vn 0.7515 -0.3853 -0.5356
vn 0.3301 -0.0375 -0.9432
vn -0.9875 0.1495 0.0490
vn -0.8136 0.5813 0.0122
vn -0.8779 0.2460 -0.4108
vn -0.7853 0.5626 -0.2584
vn -0.1433 0.9896 -0.0083
vn -0.6332 0.3093 -0.7095
vn -0.4481 0.5505 -0.7044
vn -0.2641 0.9643 -0.0204
vn -0.4168 0.0779 -0.9057
vn 0.0075 1.0000 0.0005
vn -0.0411 0.7687 -0.6383
vn -0.0001 1.0000 0.0009
vn -0.0416 0.1066 -0.9934
vn -0.0040 0.2570 -0.9664
vn 0.0008 1.0000 -0.0000
vn 0.1382 0.8055 -0.5763
vn 0.0008 1.0000 -0.0006
vn 0.2462 0.1002 -0.9640
vn 0.1768 0.1540 -0.9721
vn 0.0879 0.1980 -0.9763
vn -0.0035 1.0000 -0.0002
vn 0.3367 0.0941 -0.9369
vn 0.4905 0.6098 -0.6226
vn -0.0035 0.9997 -0.0258
vn 0.5863 -0.1623 0.7936
vn 0.3201 -0.3497 0.8805
vn 0.7498 -0.3191 0.5796
vn 0.5066 0.0473 0.8609
vn 0.6027 -0.0045 0.7980
vn 0.6703 -0.0053 0.7421
vn 0.6044 0.3686 0.7062
vn 0.6181 0.6421 0.4535
vn -0.7541 -0.6471 0.1122
vn 0.8868 -0.1216 -0.4458
vn 0.2547 -0.2737 -0.9275
vn 0.9986 0.0444 0.0272
vn 0.2430 -0.3586 -0.9013
vn 0.7139 -0.1601 -0.6817
vn 0.9921 0.0954 -0.0816
vn 0.8755 0.4766 0.0799
vn -0.0060 1.0000 0.0027
vn 0.6290 0.0745 -0.7739
vn 0.2152 0.3714 -0.9032
vn 0.6467 0.1098 -0.7548
vn -0.1829 -0.1646 -0.9693
vn -0.0063 0.9994 -0.0334
vn -0.8462 0.0480 0.5307
vn -0.8818 -0.3382 0.3288
vn -0.6626 -0.1305 0.7376
vn -0.7334 -0.2408 0.6357
vn -0.5702 -0.2799 0.7723
vn -0.5356 -0.5494 0.6413
vn -0.3865 -0.4003 0.8309
vn -0.3968 -0.1869 0.8987
vn -0.6600 -0.3239 0.6779
vn -0.2969 -0.2482 0.9221
vn -0.6123 -0.3770 0.6950
vn -0.4241 -0.3457 0.8370
vn -0.6614 -0.4185 0.6225
vn 0.2387 -0.1084 0.9650
vn 0.1664 -0.2171 0.9619
vn 0.1549 -0.4736 0.8670
vn 0.1549 -0.4998 0.8521
vn 0.3989 -0.2653 0.8778
vn 0.4615 -0.3827 0.8004
vn -0.0978 -0.2345 0.9672
vn 0.0617 -0.4820 0.8740
vn 0.5851 -0.3227 0.7440
vn 0.4339 -0.3525 0.8292
vn 0.5539 -0.3224 0.7676
vn 0.3947 -0.1668 0.9035
vn 0.6829 -0.3418 0.6456
vn 0.6437 -0.4132 0.6442
vn 0.5853 -0.4626 0.6659
vn 0.7148 -0.2437 0.6554
vn 0.6819 -0.4079 0.6072
vn -0.8800 -0.0560 0.4716
vn -0.7236 0.0315 0.6895
vn -0.5969 -0.0533 0.8005
vn -0.5529 0.5153 0.6549
vn -0.7352 0.5390 0.4111
vn -0.5968 0.5590 0.5755
vn -0.6914 0.6939 0.2011
vn -0.2728 0.0185 0.9619
vn -0.2612 0.3137 0.9129
vn -0.0137 0.9807 0.1951
vn 0.0058 1.0000 0.0058
vn 0.0894 0.1026 0.9907
vn 0.0328 0.4291 0.9026
vn 0.2225 0.9281 0.2984
vn 0.0431 0.9955 0.0844
vn 0.0008 1.0000 -0.0007
vn 0.2893 0.1771 0.9407
vn 0.8514 0.0724 0.5194
vn 0.3941 0.4031 0.8260
vn 0.1846 0.9244 0.3337
vn 0.2517 0.9501 0.1843
vn 0.0148 0.9999 0.0007
vn -0.9731 -0.1276 0.1917
vn -0.8805 -0.3380 0.3324
vn -0.8446 -0.0934 -0.5271
vn -0.9389 -0.2459 -0.2409
vn -0.7219 -0.6885 0.0692
vn -0.8248 -0.5636 0.0457
vn -0.5134 -0.5112 -0.6893
vn -0.3099 -0.5638 -0.7656
vn -0.1559 -0.2963 -0.9423
vn -0.3779 -0.3418 -0.8604
vn -0.4304 -0.6433 0.6332
vn -0.8534 -0.4923 0.1715
vn -0.6810 -0.2344 -0.6938
vn -0.6320 -0.2287 -0.7404
vn -0.4476 -0.2088 -0.8695
vn -0.3532 -0.2152 -0.9104
vn -0.0299 -0.0611 -0.9977
vn -0.6421 -0.2468 0.7258
vn 0.8737 -0.4603 -0.1572
vn 0.0343 -0.1003 -0.9944
vn 0.1048 -0.5452 -0.8317
vn 0.1652 -0.4546 -0.8752
vn -0.0449 -0.4610 -0.8863
vn -0.0356 -0.1825 -0.9826
vn 0.1847 -0.0574 -0.9811
vn 0.1527 0.0151 -0.9882
vn 0.7686 -0.6356 -0.0730
vn 0.9661 -0.2245 -0.1278
vn 0.6477 -0.3761 -0.6627
vn 0.9296 -0.3492 -0.1176
vn 0.5352 -0.5532 -0.6384
vn 0.8263 -0.4154 -0.3804
vn 0.4807 -0.4315 -0.7634
vn 0.7823 -0.2718 -0.5605
vn 0.5102 -0.1565 -0.8457
vn 0.6446 -0.2396 -0.7260
vn 0.5043 -0.2181 -0.8355
vn -0.9439 0.2631 0.1998
vn -0.7867 0.6169 -0.0221
vn -0.9002 0.2933 -0.3220
vn -0.7916 0.5333 -0.2982
vn -0.0968 0.9951 0.0182
vn -0.3663 0.0814 -0.9269
vn -0.5124 0.6396 -0.5730
vn -0.1003 0.9786 -0.1795
vn -0.4792 0.1130 -0.8704
vn 0.0055 1.0000 0.0026
vn -0.0893 0.8108 -0.5785
vn 0.0077 0.9999 -0.0124
vn -0.0078 0.1544 -0.9880
vn -0.0746 0.3033 -0.9500
vn 0.0002 1.0000 0.0005
vn 0.0642 0.7466 -0.6622
vn 0.0016 1.0000 0.0009
vn 0.1619 0.1526 -0.9749
vn 0.1736 0.1598 -0.9718
vn 0.1944 0.2504 -0.9484
vn -0.0034 1.0000 -0.0001
vn 0.5784 0.3670 -0.7285
vn 0.1327 -0.2497 -0.9592
vn 0.0069 1.0000 -0.0008
vn 0.6982 -0.0653 0.7129
vn 0.2629 -0.3923 0.8815
vn 0.3163 -0.3332 0.8882
vn 0.6586 -0.1626 0.7347
vn 0.4868 0.0979 0.8680
vn 0.7713 0.1450 0.6198
vn 0.5501 0.3699 0.7487
vn 0.1400 0.9480 0.2859
vn 0.3173 -0.2918 0.9023
vn 0.9983 -0.0550 0.0213
vn 0.0508 -0.0438 -0.9977
vn 0.9902 0.1135 -0.0818
vn 0.4767 -0.0855 -0.8749
vn 0.5163 -0.1780 -0.8377
vn 0.9659 0.2351 0.1086
vn 0.8657 0.4966 0.0632
vn -0.0023 1.0000 -0.0002
vn 0.6519 0.0505 -0.7566
vn -0.1612 0.1673 -0.9726
vn 0.7748 0.4673 -0.4257
vn 0.0976 0.1178 -0.9882
vn -0.0005 0.9997 -0.0260
s 0
f 5//1 1//1 2//1
f 6//2 2//2 3//2
f 11//3 1//3 10//3
f 12//4 7//4 8//4
f 12//5 2//5 11//5
f 14//6 9//6 10//6
f 14//7 1//7 4//7
f 17//8 7//8 16//8
f 19//9 9//9 18//9
f 20//10 15//10 16//10
f 20//11 10//11 19//11
f 20//12 7//12 11//12
f 23//13 9//13 13//13
f 16//14 24//14 25//14
f 17//15 25//15 26//15
f 28//16 18//16 27//16
f 19//17 24//17 15//17
f 29//18 24//18 28//18
f 31//19 21//19 30//19
f 32//20 22//20 31//20
f 32//21 18//21 23//21
f 26//22 33//22 34//22
f 28//23 35//23 36//23
f 29//24 36//24 37//24
f 29//25 33//25 25//25
f 38//26 33//26 37//26
f 32//27 39//27 40//27
f 32//28 35//28 27//28
f 41//29 35//29 40//29
f 42//30 36//30 41//30
f 6//31 43//31 44//31
f 12//32 46//32 48//32
f 43//33 12//33 48//33
f 49//34 46//34 47//34
f 50//35 43//35 48//35
f 50//36 49//36 51//36
f 45//37 50//37 51//37
f 52//38 8//38 17//38
f 47//39 52//39 53//39
f 54//40 47//40 53//40
f 55//41 49//41 54//41
f 56//42 17//42 26//42
f 57//43 52//43 56//43
f 58//44 57//44 56//44
f 54//45 57//45 59//45
f 55//46 59//46 60//46
f 61//47 26//47 34//47
f 38//48 61//48 34//48
f 58//49 61//49 62//49
f 63//50 58//50 62//50
f 64//51 63//51 62//51
f 60//52 63//52 65//52
f 67//53 4//53 5//53
f 67//54 6//54 68//54
f 69//55 67//55 70//55
f 70//56 68//56 71//56
f 73//57 13//57 14//57
f 73//58 4//58 66//58
f 74//59 73//59 75//59
f 69//60 73//60 66//60
f 76//61 69//61 70//61
f 71//62 76//62 70//62
f 79//63 21//63 22//63
f 79//64 23//64 80//64
f 72//65 23//65 13//65
f 81//66 72//66 74//66
f 82//67 74//67 75//67
f 83//68 75//68 76//68
f 84//69 76//69 77//69
f 78//70 84//70 77//70
f 86//71 31//71 30//71
f 88//72 79//72 80//72
f 81//73 88//73 80//73
f 82//74 89//74 81//74
f 91//75 82//75 83//75
f 84//76 91//76 83//76
f 93//77 84//77 85//77
f 94//78 31//78 87//78
f 95//79 39//79 94//79
f 88//80 94//80 87//80
f 96//81 40//81 95//81
f 89//82 95//82 88//82
f 99//83 96//83 95//83
f 90//84 99//84 89//84
f 101//85 96//85 100//85
f 101//86 90//86 91//86
f 101//87 98//87 97//87
f 102//88 91//88 92//88
f 103//89 6//89 44//89
f 103//90 45//90 104//90
f 105//91 68//91 103//91
f 106//92 103//92 104//92
f 107//93 45//93 51//93
f 108//94 71//94 105//94
f 109//95 105//95 106//95
f 106//96 107//96 109//96
f 110//97 77//97 108//97
f 107//98 55//98 111//98
f 113//99 108//99 109//99
f 109//100 111//100 113//100
f 110//101 85//101 78//101
f 110//102 112//102 114//102
f 111//103 60//103 115//103
f 113//104 116//104 112//104
f 117//105 111//105 115//105
f 93//106 116//106 92//106
f 118//107 85//107 114//107
f 118//108 112//108 116//108
f 119//109 60//109 65//109
f 116//110 102//110 92//110
f 117//111 120//111 116//111
f 121//112 115//112 119//112
f 38//113 122//113 123//113
f 42//114 124//114 125//114
f 42//115 122//115 37//115
f 126//116 122//116 125//116
f 127//117 38//117 123//117
f 126//118 127//118 123//118
f 64//119 127//119 128//119
f 129//120 64//120 128//120
f 130//121 41//121 96//121
f 131//122 124//122 130//122
f 131//123 96//123 97//123
f 131//124 126//124 125//124
f 98//125 131//125 97//125
f 133//126 98//126 102//126
f 134//127 126//127 132//127
f 134//128 129//128 128//128
f 119//129 129//129 135//129
f 133//130 134//130 132//130
f 120//131 133//131 102//131
f 137//132 134//132 136//132
f 121//133 136//133 120//133
f 137//134 119//134 135//134
f 5//135 4//135 1//135
f 6//136 5//136 2//136
f 11//137 2//137 1//137
f 12//138 11//138 7//138
f 12//139 3//139 2//139
f 14//140 13//140 9//140
f 14//141 10//141 1//141
f 17//142 8//142 7//142
f 19//143 10//143 9//143
f 20//144 19//144 15//144
f 20//145 11//145 10//145
f 20//146 16//146 7//146
f 23//147 18//147 9//147
f 16//148 15//148 24//148
f 17//149 16//149 25//149
f 28//150 19//150 18//150
f 19//151 28//151 24//151
f 29//152 25//152 24//152
f 31//153 22//153 21//153
f 32//154 23//154 22//154
f 32//155 27//155 18//155
f 26//156 25//156 33//156
f 28//157 27//157 35//157
f 29//158 28//158 36//158
f 29//159 37//159 33//159
f 38//160 34//160 33//160
f 32//161 31//161 39//161
f 32//162 40//162 35//162
f 41//163 36//163 35//163
f 42//164 37//164 36//164
f 6//165 3//165 43//165
f 12//166 8//166 46//166
f 43//167 3//167 12//167
f 49//168 48//168 46//168
f 50//169 44//169 43//169
f 50//170 48//170 49//170
f 45//171 44//171 50//171
f 52//172 46//172 8//172
f 47//173 46//173 52//173
f 54//174 49//174 47//174
f 55//175 51//175 49//175
f 56//176 52//176 17//176
f 57//177 53//177 52//177
f 58//178 59//178 57//178
f 54//179 53//179 57//179
f 55//180 54//180 59//180
f 61//181 56//181 26//181
f 38//182 62//182 61//182
f 58//183 56//183 61//183
f 63//184 59//184 58//184
f 64//185 65//185 63//185
f 60//186 59//186 63//186
f 67//187 66//187 4//187
f 67//188 5//188 6//188
f 69//189 66//189 67//189
f 70//190 67//190 68//190
f 73//191 72//191 13//191
f 73//192 14//192 4//192
f 74//193 72//193 73//193
f 69//194 75//194 73//194
f 76//195 75//195 69//195
f 71//196 77//196 76//196
f 79//197 22//197 23//197
f 72//198 80//198 23//198
f 81//199 80//199 72//199
f 82//200 81//200 74//200
f 83//201 82//201 75//201
f 84//202 83//202 76//202
f 78//203 85//203 84//203
f 21//204 79//204 86//204 30//204
f 86//205 87//205 31//205
f 79//206 87//206 86//206
f 88//207 87//207 79//207
f 81//208 89//208 88//208
f 82//209 90//209 89//209
f 91//210 90//210 82//210
f 84//211 92//211 91//211
f 93//212 92//212 84//212
f 94//213 39//213 31//213
f 95//214 40//214 39//214
f 88//215 95//215 94//215
f 96//216 41//216 40//216
f 89//217 99//217 95//217
f 99//218 100//218 96//218
f 90//219 100//219 99//219
f 101//220 97//220 96//220
f 101//221 100//221 90//221
f 101//222 102//222 98//222
f 102//223 101//223 91//223
f 103//224 68//224 6//224
f 103//225 44//225 45//225
f 105//226 71//226 68//226
f 106//227 105//227 103//227
f 107//228 104//228 45//228
f 108//229 77//229 71//229
f 109//230 108//230 105//230
f 106//231 104//231 107//231
f 110//232 78//232 77//232
f 107//233 51//233 55//233
f 113//234 112//234 108//234
f 109//235 107//235 111//235
f 110//236 114//236 85//236
f 110//237 108//237 112//237
f 111//238 55//238 60//238
f 113//239 117//239 116//239
f 117//240 113//240 111//240
f 93//241 118//241 116//241
f 118//242 93//242 85//242
f 118//243 114//243 112//243
f 119//244 115//244 60//244
f 116//245 120//245 102//245
f 117//246 121//246 120//246
f 121//247 117//247 115//247
f 38//248 37//248 122//248
f 42//249 41//249 124//249
f 42//250 125//250 122//250
f 126//251 123//251 122//251
f 127//252 62//252 38//252
f 126//253 128//253 127//253
f 64//254 62//254 127//254
f 129//255 65//255 64//255
f 130//256 124//256 41//256
f 131//257 125//257 124//257
f 131//258 130//258 96//258
f 131//259 132//259 126//259
f 98//260 132//260 131//260
f 133//261 132//261 98//261
f 134//262 128//262 126//262
f 134//263 135//263 129//263
f 119//264 65//264 129//264
f 133//265 136//265 134//265
f 120//266 136//266 133//266
f 137//267 135//267 134//267
f 121//268 137//268 136//268
f 137//269 121//269 119//269
