# Blender 4.0.2
# www.blender.org
mtllib 지형2.mtl
o 아이코스피어.002
v 255.665436 -23.184038 -26.610195
v 149.296127 -128.065933 -96.902367
v 175.819107 -56.313274 -111.280167
v 116.499016 -199.947617 -10.176476
v 140.449081 -145.936646 -35.126862
v 239.935181 -60.053528 -51.775345
v 20.123707 -119.928345 -143.498566
v 34.313751 -56.492462 -152.592728
v -5.163129 -199.006210 -59.274857
v 52.017643 -157.080444 -101.517708
v 99.643845 -56.867542 -135.151947
v 49.075493 -221.040405 -30.641815
v 74.885994 -187.627792 -47.374619
v 254.937149 -10.779800 -25.267931
v 144.496658 0.005402 -90.401054
v 191.033829 0.012661 -45.380432
v 52.405697 -0.033159 -103.281342
v 35.768730 0.004124 -33.840816
v 256.601257 -23.123325 -18.553856
v 116.416756 -200.621796 -6.735680
v 165.496445 -164.065536 12.916195
v 246.481384 -60.425327 9.507032
v 161.405624 -134.649109 65.369301
v 192.463165 -55.601917 77.993134
v 69.357552 -237.686844 23.552597
v 102.913506 -198.197403 35.511726
v 18.646328 -200.938110 64.988266
v 58.384491 -153.970108 88.399368
v 116.562172 -56.025379 122.845894
v 18.209854 -113.321495 121.185951
v 48.331398 -56.977516 149.205780
v 255.312256 -10.764193 -19.681799
v 222.413498 0.013025 35.309174
v 184.446854 0.003339 88.338341
v 54.965401 -0.009014 41.790531
v 94.579529 -0.073239 117.038116
v 28.173338 5.700933 138.646164
v -18.745647 -105.201874 -124.952873
v -51.662567 -56.772015 -148.317566
v -2.605188 -199.434692 -59.041286
v -56.986336 -152.769150 -87.115257
v -120.346176 -56.909874 -119.244553
v -54.828724 -227.141022 -23.362606
v -78.392197 -180.571411 -35.768494
v -143.377701 -113.778687 -56.301392
v -197.347260 -58.213299 -82.029594
v -128.764450 -211.701935 8.699615
v -191.326569 -153.952133 -9.352768
v -250.334106 -56.540054 -25.227888
v -245.441132 -103.883850 20.385246
v -276.288025 -57.374950 16.223379
v -31.643856 -0.648839 -135.571228
v -69.111382 -0.053077 -92.181427
v -99.293694 0.000984 -21.199650
v -160.264542 0.220387 -63.395947
v -202.872635 7.368479 -13.246162
v -256.494812 -10.275607 17.101452
v -66.337845 -269.889069 40.514423
v -61.073799 -237.168961 85.202057
v -58.566330 -188.327408 125.724091
v -52.935787 -118.239471 136.553101
v -55.888416 -56.257877 160.488785
v -129.014709 -216.476120 44.872589
v -189.083557 -147.994690 44.142540
v -234.857712 -56.944332 63.758820
v -121.146103 -210.409744 79.566032
v -119.263718 -142.493896 97.522514
v -167.391983 -56.515938 118.875847
v -100.354813 -104.583504 129.374939
v -118.535294 -56.550179 143.798828
v -245.800186 -105.301971 24.067816
v -269.171661 -57.691406 30.788019
v -87.132812 -0.173209 38.682629
v -57.392822 -0.367630 105.804802
v -54.160942 -8.882947 136.625702
v -191.417664 0.049230 46.290886
v -137.179459 8.734622 115.510452
v -112.308273 -6.628250 142.654236
v -256.996246 -9.388798 27.377403
v 16.473186 -5.632209 -126.900291
v 12.743852 -11.537291 -134.569931
v -18.021484 -3.180606 -135.178207
v -9.241511 -17.082943 -137.420013
v -6.170240 -17.082943 -137.215332
v -16.692831 -5.284415 -122.171837
v -20.013580 -0.026299 -64.870285
v 20.027376 -0.004461 -42.597099
v 20.032566 0.003759 -32.367989
v -20.031975 0.002827 -28.618149
v 20.025930 -0.006749 27.523342
v 19.998985 -0.049418 41.025764
v -20.027569 -0.004153 11.167891
v -19.969814 -0.095602 40.151585
v 19.958014 -0.114292 84.860855
v 19.892570 -0.217918 111.517494
v -19.944149 -0.136245 67.654793
v -19.843956 -0.294893 108.580299
v 19.674459 -0.563276 140.854507
v 9.241512 -17.082956 145.364456
v -2.738385 -17.082956 146.678268
v 23.417585 5.363643 136.820862
v 23.058413 4.794926 138.520645
v -21.409733 2.184379 119.615570
v -18.418556 -2.551894 137.502792
v 9.974788 -15.921865 -137.643448
v 9.241513 -17.082943 -137.998611
v 20.005898 -0.038470 -100.321793
v -20.001751 -0.045027 -96.667328
v -9.241513 -17.082956 145.933670
vn 0.6208 -0.3682 -0.6921
vn 0.2521 -0.1924 -0.9484
vn 0.1567 -0.3804 -0.9115
vn 0.1968 -0.8160 -0.5435
vn 0.3994 -0.6382 -0.6582
vn 0.5507 -0.8196 -0.1582
vn 0.5849 0.5406 -0.6047
vn 0.3855 0.4023 -0.8304
vn 0.3390 0.6585 -0.6719
vn 0.1148 0.5568 -0.8227
vn -0.0003 1.0000 -0.0006
vn 0.6479 -0.5369 -0.5404
vn 0.6446 -0.7610 -0.0735
vn 0.9387 -0.3278 -0.1066
vn 0.7148 -0.3751 0.5902
vn 0.3415 -0.9239 -0.1729
vn 0.5264 -0.8225 0.2154
vn 0.2798 -0.6074 0.7435
vn 0.5472 -0.7111 0.4415
vn 0.4833 -0.3200 0.8149
vn 0.3075 -0.5504 0.7762
vn 0.9930 0.0975 -0.0670
vn 0.8617 0.1345 0.4892
vn 0.1942 0.9781 -0.0755
vn 0.8131 0.0089 0.5821
vn -0.0001 1.0000 0.0002
vn 0.5072 -0.0864 0.8575
vn -0.0005 1.0000 0.0011
vn 0.3191 0.2210 0.9216
vn -0.0427 -0.4575 -0.8882
vn 0.0100 0.5240 0.8516
vn -0.4741 -0.8064 -0.3534
vn -0.2662 -0.4599 -0.8471
vn 0.1026 0.8728 0.4772
vn -0.3591 -0.4056 -0.8406
vn -0.3259 -0.6391 -0.6967
vn -0.3124 -0.5748 -0.7563
vn -0.4983 -0.6583 -0.5642
vn -0.4469 -0.4010 -0.7996
vn -0.7199 -0.5187 -0.4612
vn 0.0652 0.1988 -0.9779
vn -0.3687 0.3290 -0.8694
vn 0.1770 0.9743 0.1395
vn -0.0001 1.0000 -0.0008
vn -0.3853 0.4932 -0.7799
vn -0.5968 0.5615 -0.5732
vn 0.0640 0.9941 -0.0873
vn -0.7987 0.3448 -0.4931
vn 0.0345 -0.9517 -0.3052
vn 0.2334 -0.5679 0.7893
vn 0.3975 -0.6561 0.6415
vn 0.3736 -0.3300 0.8669
vn 0.0910 -0.4820 0.8714
vn -0.3947 -0.7291 -0.5591
vn -0.7481 -0.6572 -0.0919
vn -0.3772 -0.7255 0.5756
vn -0.7243 -0.6324 0.2748
vn -0.3326 -0.5920 0.7341
vn -0.5287 -0.4242 0.7352
vn -0.1863 -0.1354 0.9731
vn -0.4382 -0.4400 0.7838
vn -0.2401 -0.3596 0.9017
vn -0.6227 -0.7744 0.1123
vn -0.8844 -0.4002 -0.2403
vn -0.5744 -0.4378 0.6917
vn -0.0012 1.0000 0.0032
vn -0.0022 1.0000 0.0039
vn 0.1068 0.1985 0.9743
vn -0.1741 0.9443 0.2792
vn 0.0787 0.9912 0.1067
vn -0.5154 0.5848 0.6264
vn -0.0066 0.9928 -0.1194
vn -0.4530 0.0769 0.8882
vn 0.1094 0.4440 0.8893
vn 0.1503 0.9131 0.3791
vn -0.8402 0.3453 0.4180
vn -0.3061 0.4845 0.8195
vn -0.1161 0.9891 -0.0910
vn 0.6355 -0.7612 -0.1292
vn 0.4518 -0.4694 -0.7586
vn 0.2882 -0.2894 -0.9128
vn 0.1991 -0.5574 -0.8060
vn 0.4705 -0.5334 -0.7030
vn 0.2617 -0.7891 -0.5557
vn 0.5862 0.5474 -0.5972
vn 0.3165 0.1204 -0.9409
vn 0.2320 0.4558 -0.8593
vn 0.2624 0.4604 -0.8481
vn -0.0001 1.0000 -0.0001
vn 0.6262 -0.7678 -0.1355
vn 0.6542 -0.5289 -0.5406
vn 0.9380 -0.3313 -0.1022
vn 0.7369 -0.5635 0.3735
vn 0.3933 -0.8272 -0.4013
vn 0.6953 -0.6698 0.2607
vn 0.3002 -0.5010 0.8117
vn 0.2801 -0.6072 0.7436
vn 0.2750 -0.4602 0.8441
vn 0.2469 -0.4487 0.8589
vn 0.9908 0.0707 -0.1156
vn 0.8617 0.1343 0.4893
vn 0.1709 0.9852 -0.0142
vn 0.7859 0.0498 0.6164
vn -0.0001 1.0000 -0.0000
vn 0.2971 0.2133 0.9307
vn -0.0001 1.0000 0.0001
vn 0.3445 0.2626 0.9013
vn -0.4398 -0.0303 -0.8976
vn -0.1273 -0.6125 -0.7802
vn -0.1307 -0.5507 -0.8244
vn -0.3171 -0.5782 -0.7518
vn 0.0038 -0.7925 -0.6099
vn -0.3575 -0.7508 -0.5555
vn -0.4896 -0.5503 -0.6764
vn -0.4333 -0.4302 -0.7920
vn -0.3104 -0.5421 -0.7809
vn -0.5190 -0.7185 -0.4630
vn -0.7264 -0.5143 -0.4559
vn -0.0481 0.3198 -0.9463
vn -0.5329 0.7038 -0.4698
vn -0.0188 0.9789 -0.2035
vn -0.0002 1.0000 -0.0006
vn -0.2423 0.5863 -0.7730
vn -0.5952 0.5516 -0.5843
vn 0.0032 1.0000 0.0006
vn -0.5434 0.5262 -0.6542
vn 0.1312 -0.8346 -0.5349
vn 0.4607 -0.7411 0.4884
vn 0.4392 -0.5869 0.6802
vn 0.2192 -0.1662 0.9614
vn 0.2209 -0.3422 0.9133
vn -0.6493 -0.7534 -0.1039
vn -0.6910 -0.7147 0.1086
vn -0.6138 -0.7422 0.2690
vn -0.5865 -0.1918 0.7869
vn -0.5341 -0.2022 0.8209
vn -0.5535 -0.4790 0.6813
vn -0.5897 -0.3265 0.7387
vn -0.4162 -0.4024 0.8154
vn -0.2385 -0.3610 0.9016
vn -0.7317 -0.6091 -0.3059
vn -0.7879 -0.4890 0.3743
vn -0.6296 -0.4028 0.6644
vn -0.0000 1.0000 0.0002
vn -0.0012 1.0000 0.0015
vn -0.1016 0.4505 0.8870
vn 0.0142 0.9760 -0.2173
vn 0.0023 1.0000 0.0024
vn -0.7517 0.3760 0.5418
vn 0.1078 0.9932 -0.0449
vn -0.6031 0.3170 0.7320
vn -0.2573 0.0542 0.9648
vn 0.0643 0.9636 0.2595
vn -0.9686 0.2393 -0.0679
vn -0.6783 0.2205 0.7009
vn -0.2248 0.9609 0.1614
vn -0.8455 0.5340 -0.0000
vn -0.0000 1.0000 -0.0000
vn 0.8455 0.5340 -0.0000
vt 0.000000 0.000000
vt 0.747981 0.971380
vt 0.774355 0.967712
vt 0.777155 0.965040
vt 0.749681 0.925271
vt 0.750191 0.883375
vt 0.750510 0.814480
vt 0.750720 0.793258
vt 0.750772 0.699128
vt 0.750731 0.683051
vt 0.750564 0.592325
vt 0.723030 0.550552
vt 0.693964 0.538498
vt 0.672382 0.533667
vt 0.666667 0.533109
vt 0.666667 0.978468
vt 0.666667 0.994144
vt 0.666667 0.978468
vt 0.666667 0.551850
vt 0.666667 0.555018
vt 0.663794 1.000000
vt 0.415934 0.767552
vt 0.416384 0.813106
vt 0.416584 0.856332
vt 0.417365 0.920655
vt 0.405161 0.937999
vt 0.428474 0.966112
vt 0.500000 0.979363
vt 0.500000 0.534018
vt 0.431569 0.537542
vt 0.441924 0.557984
vt 0.416135 0.598069
vt 0.416043 0.648044
vt 0.415899 0.705021
s 0
f 6/1/1 2/1/1 3/1/1
f 11/1/2 7/1/2 8/1/2
f 11/1/3 2/1/3 10/1/3
f 13/1/4 9/1/4 10/1/4
f 13/1/5 4/1/5 12/1/5
f 13/1/6 2/1/6 5/1/6
f 6/1/7 15/1/7 16/1/7
f 16/1/8 1/1/8 6/1/8
f 17/1/9 11/1/9 81/1/9 80/1/9
f 15/1/10 11/1/10 17/1/10
f 15/1/11 17/1/11 18/1/11
f 21/1/12 4/1/12 5/1/12
f 22/1/13 5/1/13 6/1/13
f 19/1/14 6/1/14 1/1/14
f 23/1/15 22/1/15 24/1/15
f 20/1/16 12/1/16 4/1/16
f 26/1/17 20/1/17 21/1/17
f 27/1/18 26/1/18 28/1/18
f 23/1/19 26/1/19 21/1/19
f 29/1/20 23/1/20 24/1/20
f 30/1/21 29/1/21 31/1/21
f 19/1/22 14/1/22 32/1/22
f 33/1/23 19/1/23 32/1/23
f 32/1/24 16/1/24 33/1/24
f 24/1/25 33/1/25 34/1/25
f 35/1/26 33/1/26 18/1/26
f 34/1/27 29/1/27 24/1/27
f 34/1/28 35/1/28 36/1/28
f 36/1/29 37/1/29 29/1/29
f 8/1/30 38/1/30 39/1/30
f 41/1/31 9/1/31 40/1/31
f 10/1/32 38/1/32 7/1/32
f 42/1/33 38/1/33 41/1/33
f 12/1/34 40/1/34 9/1/34
f 44/1/35 40/1/35 43/1/35
f 42/1/36 45/1/36 46/1/36
f 44/1/37 47/1/37 48/1/37
f 44/1/38 45/1/38 41/1/38
f 49/1/39 45/1/39 48/1/39
f 49/1/40 50/1/40 51/1/40
f 83/1/41 84/1/41 39/1/41 52/1/41 82/1/41
f 52/1/42 39/1/42 42/1/42
f 82/1/43 52/1/43 53/1/43 85/1/43
f 18/1/44 87/1/44 88/1/44
f 53/1/44 54/1/44 89/1/44 86/1/44
f 55/1/45 42/1/45 46/1/45
f 49/1/46 55/1/46 46/1/46
f 54/1/47 55/1/47 56/1/47
f 57/1/48 49/1/48 51/1/48
f 25/1/49 43/1/49 12/1/49
f 27/1/50 58/1/50 25/1/50
f 60/1/51 27/1/51 28/1/51
f 30/1/52 60/1/52 28/1/52
f 62/1/53 30/1/53 31/1/53
f 58/1/54 47/1/54 43/1/54
f 64/1/55 47/1/55 63/1/55
f 66/1/56 58/1/56 59/1/56
f 66/1/57 64/1/57 63/1/57
f 60/1/58 66/1/58 59/1/58
f 67/1/59 65/1/59 64/1/59
f 69/1/60 60/1/60 61/1/60
f 69/1/61 68/1/61 67/1/61
f 62/1/62 69/1/62 61/1/62
f 71/1/63 48/1/63 64/1/63
f 72/1/64 50/1/64 71/1/64
f 65/1/65 71/1/65 64/1/65
f 35/1/66 90/1/66 91/1/66
f 54/1/66 73/1/66 93/1/66 92/1/66
f 36/1/67 94/1/67 95/1/67
f 73/1/67 74/1/67 97/1/67 96/1/67
f 62/1/68 31/1/68 37/1/68 98/1/68 99/1/68 100/1/68
f 37/1/69 101/1/69 102/1/69
f 74/1/69 75/1/69 104/1/69 103/1/69
f 76/1/70 54/1/70 56/1/70
f 68/1/71 76/1/71 65/1/71
f 77/1/72 73/1/72 76/1/72
f 78/1/73 68/1/73 70/1/73
f 78/1/74 62/1/74 75/1/74
f 78/1/75 74/1/75 77/1/75
f 72/1/76 57/1/76 51/1/76
f 79/1/77 65/1/77 76/1/77
f 76/1/78 57/1/78 79/1/78
f 6/1/79 5/1/79 2/1/79
f 11/1/80 10/1/80 7/1/80
f 11/1/81 3/1/81 2/1/81
f 13/1/82 12/1/82 9/1/82
f 13/1/83 5/1/83 4/1/83
f 13/1/84 10/1/84 2/1/84
f 6/1/85 3/1/85 15/1/85
f 16/1/86 14/1/86 1/1/86
f 11/1/87 8/1/87 105/1/87 81/1/87
f 15/1/88 3/1/88 11/1/88
f 16/1/89 15/1/89 18/1/89
f 21/1/90 20/1/90 4/1/90
f 22/1/91 21/1/91 5/1/91
f 19/1/92 22/1/92 6/1/92
f 23/1/93 21/1/93 22/1/93
f 20/1/94 25/1/94 12/1/94
f 26/1/95 25/1/95 20/1/95
f 27/1/96 25/1/96 26/1/96
f 23/1/97 28/1/97 26/1/97
f 29/1/98 28/1/98 23/1/98
f 30/1/99 28/1/99 29/1/99
f 19/1/100 1/1/100 14/1/100
f 33/1/101 22/1/101 19/1/101
f 32/1/102 14/1/102 16/1/102
f 24/1/103 22/1/103 33/1/103
f 33/1/104 16/1/104 18/1/104
f 34/1/105 36/1/105 29/1/105
f 34/1/106 33/1/106 35/1/106
f 29/1/107 37/1/107 31/1/107
f 8/1/108 7/1/108 38/1/108
f 41/1/109 10/1/109 9/1/109
f 10/1/110 41/1/110 38/1/110
f 42/1/111 39/1/111 38/1/111
f 12/1/112 43/1/112 40/1/112
f 44/1/113 41/1/113 40/1/113
f 42/1/114 41/1/114 45/1/114
f 44/1/115 43/1/115 47/1/115
f 44/1/116 48/1/116 45/1/116
f 49/1/117 46/1/117 45/1/117
f 49/1/118 48/1/118 50/1/118
f 105/1/119 8/1/119 39/1/119 84/1/119 106/1/119
f 53/1/120 52/1/120 42/1/120
f 107/1/121 17/1/121 80/1/121
f 53/1/121 108/1/121 85/1/121
f 87/1/122 18/1/122 17/1/122 107/1/122
f 53/1/122 86/1/122 108/1/122
f 55/1/123 53/1/123 42/1/123
f 49/1/124 56/1/124 55/1/124
f 54/1/125 53/1/125 55/1/125
f 57/1/126 56/1/126 49/1/126
f 25/1/127 58/1/127 43/1/127
f 27/1/128 59/1/128 58/1/128
f 60/1/129 59/1/129 27/1/129
f 30/1/130 61/1/130 60/1/130
f 62/1/131 61/1/131 30/1/131
f 58/1/132 63/1/132 47/1/132
f 64/1/133 48/1/133 47/1/133
f 66/1/134 63/1/134 58/1/134
f 66/1/135 67/1/135 64/1/135
f 60/1/136 67/1/136 66/1/136
f 67/1/137 68/1/137 65/1/137
f 69/1/138 67/1/138 60/1/138
f 69/1/139 70/1/139 68/1/139
f 62/1/140 70/1/140 69/1/140
f 71/1/141 50/1/141 48/1/141
f 72/1/142 51/1/142 50/1/142
f 65/1/143 72/1/143 71/1/143
f 35/1/144 18/1/144 88/1/144 90/1/144
f 54/1/144 92/1/144 89/1/144
f 36/1/145 35/1/145 91/1/145 94/1/145
f 73/1/145 96/1/145 93/1/145
f 102/1/146 98/1/146 37/1/146
f 75/1/146 62/1/146 100/1/146 109/1/146 104/1/146
f 101/1/147 37/1/147 36/1/147 95/1/147
f 74/1/147 103/1/147 97/1/147
f 76/1/148 73/1/148 54/1/148
f 68/1/149 77/1/149 76/1/149
f 77/1/150 74/1/150 73/1/150
f 78/1/151 77/1/151 68/1/151
f 78/1/152 70/1/152 62/1/152
f 78/1/153 75/1/153 74/1/153
f 72/1/154 79/1/154 57/1/154
f 79/1/155 72/1/155 65/1/155
f 76/1/156 56/1/156 57/1/156
f 98/2/157 102/3/157 101/4/157 95/5/157 94/6/157 91/7/157 90/8/157 88/9/157 87/10/157 107/11/157 80/12/157 81/13/157 105/14/157 106/15/157 99/16/157
f 100/17/158 99/18/158 106/15/158 84/19/158 83/20/158 109/21/158
f 92/22/159 93/23/159 96/24/159 97/25/159 103/26/159 104/27/159 109/28/159 83/29/159 82/30/159 85/31/159 108/32/159 86/33/159 89/34/159
