# Blender 4.0.2
# www.blender.org
mtllib 지형2.mtl
o 아이코스피어.002
v 255.153717 -12.074075 -24.205095
v 147.684921 -129.580521 -94.737213
v 175.621643 -56.363346 -111.353844
v 115.305511 -200.676407 -8.638715
v 136.983185 -149.769913 -34.546131
v 235.089432 -54.651291 -51.664864
v 9.466747 -116.461952 -137.611649
v 24.175549 -62.317032 -154.767685
v -7.512815 -197.606598 -58.373646
v 46.760880 -158.237473 -99.779259
v 97.833076 -56.562027 -135.533813
v 49.151913 -221.148224 -30.302002
v 75.054161 -188.129852 -46.791283
v 255.088348 -10.806586 -23.326323
v 140.606873 0.055032 -89.887421
v 188.909027 0.042632 -43.854076
v 63.574730 -0.605657 -104.059547
v 110.036133 8.176881 -39.957657
v 253.532761 -11.959229 -16.190590
v 115.130554 -200.871033 -7.944242
v 162.547058 -165.919708 13.043048
v 244.392441 -53.965858 11.427258
v 158.052795 -132.557632 67.605347
v 185.965240 -56.527592 81.492416
v 69.555771 -237.215759 22.777157
v 102.629013 -198.922089 34.401390
v 18.289640 -201.900955 64.400604
v 64.020729 -152.567200 87.338783
v 125.027107 -56.620144 117.657272
v 27.192791 -109.775536 120.716591
v 66.625954 -57.434673 142.661514
v 254.144348 -11.868833 -17.292631
v 199.376419 0.020468 12.780275
v 163.557251 -0.000968 72.821648
v 69.612503 1.725261 30.296066
v 82.225967 -0.137718 96.922447
v 53.075218 -2.406555 133.042236
v -22.981022 -105.127525 -123.891006
v -55.008286 -56.795677 -147.078995
v -3.535133 -199.380585 -58.957733
v -58.597672 -151.952271 -86.705917
v -124.226326 -56.837830 -118.020157
v -55.034821 -225.664322 -23.994795
v -78.548744 -181.061630 -35.440487
v -140.705032 -114.276588 -57.996025
v -197.760208 -56.423145 -80.083984
v -128.886169 -211.426544 8.532913
v -190.548050 -154.216965 -9.491699
v -250.520309 -56.539967 -24.996773
v -245.687714 -103.914093 21.264101
v -275.255951 -56.392830 15.202641
v -34.045254 -2.602041 -136.101822
v -92.888077 -13.961266 -113.536896
v -85.684570 -1.844535 -30.369884
v -159.743896 -1.687070 -65.906479
v -201.133743 7.114870 -12.598986
v -256.598450 -10.173135 18.490713
v -66.005905 -269.793304 40.446075
v -61.043987 -236.896484 85.415939
v -70.462967 -167.053513 125.675415
v -102.548576 -99.462090 130.917419
v -31.560698 -116.156342 132.402695
v -68.843628 -67.312027 153.802063
v -129.369522 -216.046738 44.946297
v -189.151291 -147.986008 43.928410
v -234.724640 -56.716766 63.683334
v -120.174606 -211.550323 78.656258
v -125.490463 -153.443588 90.231888
v -153.973755 -66.351151 120.900612
v -117.479080 -36.175774 142.700928
v -245.672546 -105.190155 23.486738
v -268.779602 -56.653934 30.855062
v -72.997314 2.004507 37.888111
v -58.398369 -0.941760 106.301453
v -56.037777 -8.884781 135.987320
v -188.744431 0.066022 45.250870
v -140.692993 4.590170 113.644814
v -114.813156 -7.851205 141.264465
v -256.968842 -9.616030 25.738022
v 19.258280 -5.052463 -125.336639
v 14.994313 -14.325759 -135.136002
v 15.089991 -16.796072 -135.131027
v -20.249855 -1.668396 -133.351639
v -5.340977 -16.809116 -134.863068
v 25.639183 1.808535 -99.510773
v -21.957743 -2.242052 -99.363823
v -21.727352 1.668198 -120.013664
v -38.760086 3.506886 -26.837721
v 31.766354 3.255939 -36.462379
v -24.686844 3.720834 36.848808
v 33.135052 -11.198021 29.867470
v -30.442268 -3.253190 104.391068
v 32.048347 -0.851179 100.850708
v 11.481011 -16.716372 140.771362
v 27.529896 -13.672081 137.662857
v -15.449493 -16.762186 140.373718
v -27.449753 -7.309493 137.186020
v 20.555065 -5.201343 116.263924
v -20.985771 -7.637172 126.422775
v -11.766342 -16.794445 -29.087103
v 8.421569 -16.795803 -31.752817
v -9.200715 -16.785055 -92.518364
v 10.251722 -16.791080 -92.617012
v -7.230836 -16.797075 38.546616
v 12.777258 -16.797047 36.153179
v -10.955302 -16.793911 106.218399
v 12.128481 -16.794466 105.034515
v 8.469028 -111.848022 124.473701
v 14.601548 -68.764084 153.791382
v -16.937216 -114.603424 129.524033
v -37.278290 -70.993172 157.726913
v -25.716553 -56.845345 -148.781998
vn 0.7028 -0.6022 -0.3787
vn 0.3041 -0.4189 -0.8556
vn 0.2074 -0.3654 -0.9074
vn 0.1765 -0.7266 -0.6640
vn 0.4492 -0.5925 -0.6687
vn 0.3829 -0.8213 -0.4229
vn 0.5699 0.5719 -0.5901
vn 0.3272 0.4031 -0.8546
vn 0.2582 0.5185 -0.8151
vn 0.2031 0.5170 -0.8316
vn 0.0558 0.9903 -0.1269
vn 0.6472 -0.5510 -0.5268
vn 0.7033 -0.6393 -0.3109
vn 0.9406 -0.3250 -0.0980
vn 0.7395 -0.4636 0.4880
vn 0.3900 -0.8304 -0.3979
vn 0.6083 -0.7641 0.2148
vn 0.2937 -0.5675 0.7692
vn 0.3971 -0.6538 0.6441
vn 0.3564 -0.4012 0.8438
vn 0.2903 -0.4870 0.8237
vn 0.9259 -0.3485 0.1456
vn 0.4993 0.4064 0.7652
vn 0.1839 0.9829 -0.0109
vn 0.7110 0.4685 0.5244
vn 0.0535 0.9965 0.0635
vn 0.3532 0.4212 0.8354
vn 0.0107 0.9998 0.0168
vn 0.4994 0.4534 0.7383
vn -0.0523 -0.4599 -0.8864
vn -0.1333 -0.6112 -0.7802
vn 0.3198 0.4410 0.8386
vn -0.2250 -0.6321 -0.7415
vn -0.2881 -0.5052 -0.8135
vn -0.0051 -0.7713 -0.6365
vn 0.3263 0.4596 0.8261
vn -0.3688 -0.6126 -0.6991
vn -0.4358 -0.5875 -0.6819
vn -0.3589 -0.5238 -0.7725
vn -0.3955 -0.6023 -0.6935
vn -0.4882 -0.5342 -0.6901
vn -0.7276 -0.5159 -0.4523
vn -0.0681 0.3680 -0.9273
vn -0.3775 0.3405 -0.8611
vn 0.0298 0.9642 -0.2635
vn -0.1972 0.9796 0.0394
vn -0.0263 0.9972 -0.0694
vn -0.1245 0.9848 -0.1207
vn -0.4327 0.4561 -0.7776
vn -0.5981 0.5684 -0.5650
vn 0.0668 0.9886 -0.1348
vn -0.6377 0.4808 -0.6018
vn 0.0907 -0.8834 -0.4598
vn 0.3277 -0.6491 0.6865
vn 0.3380 -0.5192 0.7849
vn 0.2701 -0.3843 0.8828
vn -0.0834 -0.2692 0.9595
vn 0.2706 -0.5527 0.7883
vn -0.4914 -0.7610 -0.4236
vn -0.7193 -0.6944 0.0198
vn -0.4917 -0.7488 0.4444
vn -0.6794 -0.4019 0.6138
vn -0.4322 -0.3809 0.8174
vn -0.5549 -0.4315 0.7112
vn -0.4987 -0.3765 0.7807
vn -0.3514 -0.2509 0.9020
vn -0.6335 -0.7691 0.0846
vn -0.8436 -0.4662 0.2663
vn -0.5999 -0.4261 0.6772
vn -0.1500 0.9828 0.1076
vn -0.0736 0.9972 -0.0158
vn -0.1572 0.9864 -0.0477
vn 0.0106 0.9973 0.0721
vn -0.0586 0.3103 0.9488
vn -0.1105 0.9802 0.1641
vn 0.0399 0.9834 0.1771
vn 0.0324 0.9993 0.0189
vn -0.6244 0.4219 0.6574
vn 0.0167 0.9997 -0.0192
vn -0.6411 0.1686 0.7487
vn 0.0113 0.2147 0.9766
vn 0.0713 0.9503 0.3029
vn -0.9210 0.3056 0.2416
vn -0.4436 0.4258 0.7886
vn -0.1992 0.9708 0.1336
vn -0.5885 0.8072 0.0454
vn -0.0009 1.0000 -0.0016
vn 0.6541 0.7547 0.0514
vn 0.6539 0.7541 0.0613
vn -0.7038 0.7102 0.0161
vn 0.0002 1.0000 0.0001
vn -0.8448 0.5345 -0.0260
vn -0.0002 1.0000 -0.0004
vn 0.7506 0.6582 0.0580
vn 0.6726 0.7337 -0.0965
vn -0.4814 0.8691 0.1141
vn -0.0000 1.0000 -0.0000
vn 0.6710 0.7366 0.0850
vn -0.4846 0.8719 -0.0705
vn 0.1316 -0.5330 0.8358
vn 0.1315 0.2300 0.9643
vn -0.0424 -0.4927 0.8692
vn 0.0354 0.2688 0.9625
vn -0.2835 -0.3356 -0.8983
vn 0.0584 0.2368 -0.9698
vt 0.000000 0.000000
vt 0.737203 0.959199
vt 0.730872 0.930875
vt 0.749789 0.908481
vt 0.666667 0.914237
vt 0.666667 0.966154
vt 0.666667 0.936941
vt 0.666667 0.987357
vt 0.500000 0.966358
vt 0.500000 0.915942
vt 0.417312 0.912505
vt 0.446056 0.945880
vt 0.443026 0.960901
vt 0.415906 0.700794
vt 0.500000 0.702178
vt 0.500000 0.604604
vt 0.417082 0.598068
vt 0.666667 0.700861
vt 0.750770 0.695272
vt 0.750144 0.592601
vt 0.666667 0.602553
vt 0.666667 0.723177
vt 0.666667 0.625604
vt 0.724706 0.553212
vt 0.667089 0.535182
vt 0.666667 0.535115
vt 0.666667 0.553183
vt 0.500000 0.532183
vt 0.431746 0.540370
vt 0.441172 0.559782
vt 0.416400 0.805603
vt 0.500000 0.809970
vt 0.666667 0.807068
vt 0.750478 0.799975
vt 0.666667 0.830969
s 0
f 6/1/1 5/1/1 2/1/1 3/1/1
f 11/1/2 10/1/2 7/1/2 8/1/2
f 11/1/3 3/1/3 2/1/3 10/1/3
f 13/1/4 12/1/4 9/1/4 10/1/4
f 13/1/5 5/1/5 4/1/5 12/1/5
f 5/1/6 13/1/6 10/1/6 2/1/6
f 16/1/7 6/1/7 3/1/7 15/1/7
f 16/1/8 14/1/8 1/1/8 6/1/8
f 17/1/9 11/1/9 8/1/9 81/1/9 80/1/9
f 17/1/10 15/1/10 3/1/10 11/1/10
f 18/1/11 16/1/11 15/1/11 17/1/11
f 21/1/12 20/1/12 4/1/12 5/1/12
f 22/1/13 21/1/13 5/1/13 6/1/13
f 19/1/14 22/1/14 6/1/14 1/1/14
f 24/1/15 23/1/15 21/1/15 22/1/15
f 20/1/16 25/1/16 12/1/16 4/1/16
f 21/1/17 26/1/17 25/1/17 20/1/17
f 28/1/18 27/1/18 25/1/18 26/1/18
f 23/1/19 28/1/19 26/1/19 21/1/19
f 24/1/20 29/1/20 28/1/20 23/1/20
f 31/1/21 30/1/21 28/1/21 29/1/21
f 32/1/22 19/1/22 1/1/22 14/1/22
f 32/1/23 33/1/23 22/1/23 19/1/23
f 33/1/24 32/1/24 14/1/24 16/1/24
f 34/1/25 24/1/25 22/1/25 33/1/25
f 35/1/26 33/1/26 16/1/26 18/1/26
f 34/1/27 36/1/27 29/1/27 24/1/27
f 36/1/28 34/1/28 33/1/28 35/1/28
f 37/1/29 31/1/29 29/1/29 36/1/29
f 39/1/30 112/1/30 38/1/30
f 41/1/31 10/1/31 40/1/31
f 10/1/32 9/1/32 40/1/32
f 10/1/33 41/1/33 38/1/33 7/1/33
f 41/1/34 42/1/34 39/1/34 38/1/34
f 12/1/35 43/1/35 9/1/35
f 43/1/36 40/1/36 9/1/36
f 43/1/37 44/1/37 41/1/37 40/1/37
f 46/1/38 42/1/38 41/1/38 45/1/38
f 48/1/39 44/1/39 43/1/39 47/1/39
f 44/1/40 48/1/40 45/1/40 41/1/40
f 48/1/41 49/1/41 46/1/41 45/1/41
f 51/1/42 49/1/42 48/1/42 50/1/42
f 81/1/43 8/1/43 112/1/43 84/1/43 82/1/43
f 42/1/44 53/1/44 52/1/44 39/1/44
f 85/1/45 17/1/45 80/1/45
f 83/1/46 52/1/46 53/1/46 86/1/46 87/1/46
f 18/1/47 17/1/47 85/1/47 89/1/47
f 86/1/48 53/1/48 54/1/48 88/1/48
f 55/1/49 53/1/49 42/1/49 46/1/49
f 49/1/50 56/1/50 55/1/50 46/1/50
f 56/1/51 54/1/51 53/1/51 55/1/51
f 57/1/52 56/1/52 49/1/52 51/1/52
f 25/1/53 58/1/53 43/1/53 12/1/53
f 27/1/54 59/1/54 58/1/54 25/1/54
f 28/1/55 60/1/55 59/1/55 27/1/55
f 30/1/56 108/1/56 110/1/56 62/1/56 60/1/56 28/1/56
f 62/1/57 63/1/57 61/1/57 60/1/57
f 31/1/58 109/1/58 108/1/58 30/1/58
f 58/1/59 64/1/59 47/1/59 43/1/59
f 64/1/60 65/1/60 48/1/60 47/1/60
f 59/1/61 67/1/61 64/1/61 58/1/61
f 67/1/62 68/1/62 65/1/62 64/1/62
f 60/1/63 68/1/63 67/1/63 59/1/63
f 68/1/64 69/1/64 66/1/64 65/1/64
f 61/1/65 69/1/65 68/1/65 60/1/65
f 63/1/66 70/1/66 69/1/66 61/1/66
f 65/1/67 71/1/67 50/1/67 48/1/67
f 71/1/68 72/1/68 51/1/68 50/1/68
f 66/1/69 72/1/69 71/1/69 65/1/69
f 35/1/70 18/1/70 89/1/70 91/1/70
f 54/1/71 73/1/71 90/1/71 88/1/71
f 36/1/72 35/1/72 91/1/72 93/1/72
f 90/1/73 73/1/73 74/1/73 92/1/73
f 75/1/74 63/1/74 111/1/74 96/1/74 97/1/74
f 37/1/75 36/1/75 93/1/75 98/1/75 95/1/75
f 99/1/76 92/1/76 74/1/76 75/1/76 97/1/76
f 76/1/77 73/1/77 54/1/77 56/1/77
f 69/1/78 77/1/78 76/1/78 66/1/78
f 77/1/79 74/1/79 73/1/79 76/1/79
f 70/1/80 78/1/80 77/1/80 69/1/80
f 75/1/81 78/1/81 70/1/81 63/1/81
f 78/1/82 75/1/82 74/1/82 77/1/82
f 72/1/83 79/1/83 57/1/83 51/1/83
f 76/1/84 79/1/84 72/1/84 66/1/84
f 79/1/85 76/1/85 56/1/85 57/1/85
f 95/2/86 98/3/86 93/4/86 107/5/86 94/6/86
f 94/6/87 107/5/87 106/7/87 96/8/87
f 96/9/88 106/10/88 92/11/88 99/12/88 97/13/88
f 88/14/89 100/15/89 102/16/89 86/17/89
f 101/18/90 89/19/90 85/20/90 103/21/90
f 100/22/91 101/18/91 103/21/91 102/23/91
f 103/21/92 85/20/92 80/24/92 81/25/92 82/26/92
f 102/23/93 103/21/93 82/26/93 84/27/93
f 86/17/94 102/16/94 84/28/94 83/29/94 87/30/94
f 90/31/95 104/32/95 100/15/95 88/14/95
f 105/33/96 91/34/96 89/19/96 101/18/96
f 104/35/97 105/33/97 101/18/97 100/22/97
f 92/11/98 106/10/98 104/32/98 90/31/98
f 107/5/99 93/4/99 91/34/99 105/33/99
f 106/7/97 107/5/97 105/33/97 104/35/97
f 108/1/100 109/1/100 111/1/100 110/1/100
f 94/1/101 109/1/101 31/1/101 37/1/101 95/1/101
f 110/1/102 111/1/102 63/1/102 62/1/102
f 96/1/103 111/1/103 109/1/103 94/1/103
f 38/1/104 112/1/104 8/1/104 7/1/104
f 84/1/105 112/1/105 39/1/105 52/1/105 83/1/105
