# Blender 4.0.2
# www.blender.org
mtllib 지형3.mtl
o 아이코스피어.002
v 255.665466 -23.184038 -26.610197
v 149.296143 -128.065933 -96.902374
v 175.819122 -56.313274 -111.280174
v 116.499023 -199.947617 -10.176478
v 140.449097 -145.936646 -35.126865
v 239.935196 -60.053528 -51.775352
v 20.123707 -119.928345 -143.498566
v 34.313751 -56.492462 -152.592728
v -5.163129 -199.006210 -59.274857
v 52.017647 -157.080444 -101.517708
v 99.643852 -56.867542 -135.151947
v 49.075497 -221.040405 -30.641815
v 74.886002 -187.627792 -47.374619
v 254.937164 -10.779800 -25.267935
v 144.496674 0.005402 -90.401054
v 191.033844 0.012661 -45.380432
v 4.885107 -7.437879 -134.517303
v 52.405701 -0.033159 -103.281342
v 35.768734 0.004124 -33.840816
v 256.601288 -23.123325 -18.553860
v 116.416763 -200.621796 -6.735682
v 165.496460 -164.065536 12.916189
v 246.481400 -60.425327 9.507029
v 161.405640 -134.649109 65.369301
v 192.463196 -55.601917 77.993134
v 69.357552 -237.686844 23.552595
v 102.913513 -198.197403 35.511726
v 18.646330 -200.938110 64.988266
v 58.384495 -153.970108 88.399368
v 116.562180 -56.025379 122.845886
v 18.209854 -113.321495 121.185951
v 48.331406 -56.977516 149.205780
v 255.312271 -10.764193 -19.681803
v 222.413513 0.013025 35.309174
v 184.446869 0.003339 88.338341
v 54.965408 -0.009014 41.790531
v 94.579544 -0.073239 117.038109
v 28.173340 5.700933 138.646164
v -18.745647 -105.201874 -124.952873
v -51.662575 -56.772015 -148.317566
v -2.605188 -199.434692 -59.041286
v -56.986343 -152.769150 -87.115257
v -120.346176 -56.909874 -119.244553
v -54.828728 -227.141022 -23.362606
v -78.392204 -180.571411 -35.768494
v -143.377716 -113.778687 -56.301388
v -197.347275 -58.213299 -82.029594
v -128.764450 -211.701935 8.699617
v -191.326599 -153.952133 -9.352764
v -250.334122 -56.540054 -25.227886
v -245.441147 -103.883850 20.385248
v -276.288055 -57.374950 16.223383
v -31.643858 -0.648839 -135.571228
v -69.111389 -0.053077 -92.181427
v -99.293701 0.000984 -21.199650
v -160.264557 0.220387 -63.395943
v -202.872650 7.368479 -13.246159
v -256.494843 -10.275607 17.101456
v -66.337852 -269.889069 40.514423
v -61.073807 -237.168961 85.202057
v -58.566338 -188.327408 125.724091
v -52.935795 -118.239471 136.553101
v -55.888424 -56.257877 160.488785
v -129.014709 -216.476120 44.872589
v -189.083572 -147.994690 44.142544
v -234.857727 -56.944332 63.758820
v -121.146111 -210.409744 79.566032
v -119.263725 -142.493896 97.522522
v -167.391998 -56.515938 118.875854
v -100.354820 -104.583504 129.374939
v -118.535294 -56.550179 143.798828
v -245.800201 -105.301971 24.067820
v -269.171692 -57.691406 30.788023
v -87.132820 -0.173209 38.682629
v -57.392822 -0.367630 105.804802
v -54.160950 -8.882947 136.625702
v -191.417679 0.049230 46.290890
v -137.179474 8.734622 115.510452
v -112.308281 -6.628250 142.654236
v -256.996246 -9.388798 27.377409
vn 0.6208 -0.3682 -0.6921
vn 0.2521 -0.1924 -0.9484
vn 0.1567 -0.3804 -0.9115
vn 0.1968 -0.8160 -0.5435
vn 0.3994 -0.6382 -0.6582
vn 0.5507 -0.8196 -0.1582
vn 0.5849 0.5406 -0.6047
vn 0.3855 0.4023 -0.8304
vn 0.3390 0.6585 -0.6719
vn 0.1148 0.5568 -0.8227
vn -0.0003 1.0000 -0.0006
vn 0.6479 -0.5369 -0.5404
vn 0.6446 -0.7610 -0.0735
vn 0.9387 -0.3278 -0.1066
vn 0.7148 -0.3751 0.5902
vn 0.3415 -0.9239 -0.1729
vn 0.5264 -0.8225 0.2154
vn 0.2798 -0.6074 0.7435
vn 0.5472 -0.7111 0.4415
vn 0.4833 -0.3200 0.8149
vn 0.3075 -0.5504 0.7762
vn 0.9930 0.0975 -0.0670
vn 0.8617 0.1345 0.4892
vn 0.1942 0.9781 -0.0755
vn 0.8131 0.0089 0.5821
vn -0.0001 1.0000 0.0002
vn 0.5072 -0.0864 0.8575
vn -0.0005 1.0000 0.0011
vn 0.3191 0.2210 0.9216
vn -0.0427 -0.4575 -0.8882
vn 0.0100 0.5240 0.8516
vn -0.4741 -0.8064 -0.3534
vn -0.2662 -0.4599 -0.8471
vn 0.1026 0.8728 0.4772
vn -0.3591 -0.4056 -0.8406
vn -0.3259 -0.6391 -0.6967
vn -0.3124 -0.5748 -0.7563
vn -0.4983 -0.6583 -0.5642
vn -0.4469 -0.4010 -0.7996
vn -0.7199 -0.5187 -0.4612
vn 0.0652 0.1988 -0.9779
vn -0.3687 0.3290 -0.8694
vn 0.1770 0.9743 0.1395
vn -0.0001 1.0000 -0.0008
vn -0.3853 0.4932 -0.7799
vn -0.5968 0.5615 -0.5732
vn 0.0640 0.9941 -0.0873
vn -0.7987 0.3448 -0.4931
vn 0.0345 -0.9517 -0.3052
vn 0.2334 -0.5679 0.7893
vn 0.3975 -0.6561 0.6415
vn 0.3736 -0.3300 0.8669
vn 0.0910 -0.4820 0.8714
vn -0.3947 -0.7291 -0.5591
vn -0.7481 -0.6572 -0.0919
vn -0.3772 -0.7255 0.5756
vn -0.7243 -0.6324 0.2748
vn -0.3326 -0.5920 0.7341
vn -0.5287 -0.4242 0.7352
vn -0.1863 -0.1354 0.9731
vn -0.4382 -0.4400 0.7838
vn -0.2401 -0.3596 0.9017
vn -0.6227 -0.7744 0.1123
vn -0.8844 -0.4002 -0.2403
vn -0.5744 -0.4378 0.6917
vn -0.0012 1.0000 0.0032
vn -0.0022 1.0000 0.0039
vn 0.1068 0.1985 0.9743
vn -0.1741 0.9443 0.2792
vn 0.0787 0.9912 0.1067
vn -0.5154 0.5848 0.6264
vn -0.0066 0.9928 -0.1194
vn -0.4530 0.0769 0.8882
vn 0.1094 0.4440 0.8893
vn 0.1503 0.9131 0.3791
vn -0.8402 0.3453 0.4180
vn -0.3061 0.4845 0.8195
vn -0.1161 0.9891 -0.0910
vn 0.6355 -0.7612 -0.1292
vn 0.4518 -0.4694 -0.7586
vn 0.2882 -0.2894 -0.9128
vn 0.1991 -0.5574 -0.8060
vn 0.4705 -0.5334 -0.7030
vn 0.2617 -0.7891 -0.5557
vn 0.5862 0.5474 -0.5972
vn 0.3165 0.1204 -0.9409
vn 0.2320 0.4558 -0.8593
vn 0.2624 0.4604 -0.8481
vn -0.0001 1.0000 -0.0001
vn 0.6262 -0.7678 -0.1355
vn 0.6542 -0.5289 -0.5406
vn 0.9380 -0.3313 -0.1022
vn 0.7369 -0.5635 0.3735
vn 0.3933 -0.8272 -0.4013
vn 0.6953 -0.6698 0.2607
vn 0.3002 -0.5010 0.8117
vn 0.2801 -0.6072 0.7436
vn 0.2750 -0.4602 0.8441
vn 0.2469 -0.4487 0.8589
vn 0.9908 0.0707 -0.1156
vn 0.8617 0.1343 0.4893
vn 0.1709 0.9852 -0.0142
vn 0.7859 0.0498 0.6164
vn -0.0001 1.0000 -0.0000
vn 0.2971 0.2133 0.9307
vn -0.0001 1.0000 0.0001
vn 0.3445 0.2626 0.9013
vn -0.4398 -0.0303 -0.8976
vn -0.1273 -0.6125 -0.7802
vn -0.1307 -0.5507 -0.8244
vn -0.3171 -0.5782 -0.7518
vn 0.0038 -0.7925 -0.6099
vn -0.3575 -0.7508 -0.5555
vn -0.4896 -0.5503 -0.6764
vn -0.4333 -0.4302 -0.7920
vn -0.3104 -0.5421 -0.7809
vn -0.5190 -0.7185 -0.4630
vn -0.7264 -0.5143 -0.4559
vn -0.0481 0.3198 -0.9463
vn -0.5329 0.7038 -0.4698
vn -0.0188 0.9789 -0.2035
vn -0.0002 1.0000 -0.0006
vn -0.2423 0.5863 -0.7730
vn -0.5952 0.5516 -0.5843
vn 0.0032 1.0000 0.0006
vn -0.5434 0.5262 -0.6542
vn 0.1312 -0.8346 -0.5349
vn 0.4607 -0.7411 0.4884
vn 0.4392 -0.5869 0.6802
vn 0.2192 -0.1662 0.9614
vn 0.2209 -0.3422 0.9133
vn -0.6493 -0.7534 -0.1039
vn -0.6910 -0.7147 0.1086
vn -0.6138 -0.7422 0.2690
vn -0.5865 -0.1918 0.7869
vn -0.5341 -0.2022 0.8209
vn -0.5535 -0.4790 0.6813
vn -0.5897 -0.3265 0.7387
vn -0.4162 -0.4024 0.8154
vn -0.2385 -0.3610 0.9016
vn -0.7317 -0.6091 -0.3059
vn -0.7879 -0.4890 0.3743
vn -0.6296 -0.4028 0.6644
vn -0.0000 1.0000 0.0002
vn -0.0012 1.0000 0.0015
vn -0.1016 0.4505 0.8870
vn 0.0142 0.9760 -0.2173
vn 0.0023 1.0000 0.0024
vn -0.7517 0.3760 0.5418
vn 0.1078 0.9932 -0.0449
vn -0.6031 0.3170 0.7320
vn -0.2573 0.0542 0.9648
vn 0.0643 0.9636 0.2595
vn -0.9686 0.2393 -0.0679
vn -0.6783 0.2205 0.7009
vn -0.2248 0.9609 0.1614
s 0
f 6//1 2//1 3//1
f 11//2 7//2 8//2
f 11//3 2//3 10//3
f 13//4 9//4 10//4
f 13//5 4//5 12//5
f 13//6 2//6 5//6
f 6//7 15//7 16//7
f 16//8 1//8 6//8
f 11//9 17//9 18//9
f 15//10 11//10 18//10
f 19//11 15//11 18//11
f 22//12 4//12 5//12
f 23//13 5//13 6//13
f 20//14 6//14 1//14
f 24//15 23//15 25//15
f 21//16 12//16 4//16
f 27//17 21//17 22//17
f 28//18 27//18 29//18
f 24//19 27//19 22//19
f 30//20 24//20 25//20
f 31//21 30//21 32//21
f 20//22 14//22 33//22
f 34//23 20//23 33//23
f 33//24 16//24 34//24
f 25//25 34//25 35//25
f 34//26 19//26 36//26
f 35//27 30//27 25//27
f 35//28 36//28 37//28
f 38//29 30//29 37//29
f 8//30 39//30 40//30
f 42//31 9//31 41//31
f 10//32 39//32 7//32
f 43//33 39//33 42//33
f 12//34 41//34 9//34
f 45//35 41//35 44//35
f 43//36 46//36 47//36
f 45//37 48//37 49//37
f 45//38 46//38 42//38
f 50//39 46//39 49//39
f 50//40 51//40 52//40
f 17//41 40//41 53//41
f 43//42 53//42 40//42
f 54//43 17//43 53//43
f 19//44 54//44 55//44
f 56//45 43//45 47//45
f 50//46 56//46 47//46
f 55//47 56//47 57//47
f 58//48 50//48 52//48
f 26//49 44//49 12//49
f 28//50 59//50 26//50
f 61//51 28//51 29//51
f 31//52 61//52 29//52
f 63//53 31//53 32//53
f 59//54 48//54 44//54
f 65//55 48//55 64//55
f 67//56 59//56 60//56
f 67//57 65//57 64//57
f 61//58 67//58 60//58
f 68//59 66//59 65//59
f 70//60 61//60 62//60
f 70//61 69//61 68//61
f 63//62 70//62 62//62
f 72//63 49//63 65//63
f 73//64 51//64 72//64
f 66//65 72//65 65//65
f 36//66 55//66 74//66
f 37//67 74//67 75//67
f 38//68 63//68 32//68
f 38//69 75//69 76//69
f 77//70 55//70 57//70
f 69//71 77//71 66//71
f 78//72 74//72 77//72
f 79//73 69//73 71//73
f 79//74 63//74 76//74
f 79//75 75//75 78//75
f 73//76 58//76 52//76
f 80//77 66//77 77//77
f 77//78 58//78 80//78
f 6//79 5//79 2//79
f 11//80 10//80 7//80
f 11//81 3//81 2//81
f 13//82 12//82 9//82
f 13//83 5//83 4//83
f 13//84 10//84 2//84
f 6//85 3//85 15//85
f 16//86 14//86 1//86
f 11//87 8//87 17//87
f 15//88 3//88 11//88
f 19//89 16//89 15//89
f 22//90 21//90 4//90
f 23//91 22//91 5//91
f 20//92 23//92 6//92
f 24//93 22//93 23//93
f 21//94 26//94 12//94
f 27//95 26//95 21//95
f 28//96 26//96 27//96
f 24//97 29//97 27//97
f 30//98 29//98 24//98
f 31//99 29//99 30//99
f 20//100 1//100 14//100
f 34//101 23//101 20//101
f 33//102 14//102 16//102
f 25//103 23//103 34//103
f 34//104 16//104 19//104
f 35//105 37//105 30//105
f 35//106 34//106 36//106
f 38//107 32//107 30//107
f 8//108 7//108 39//108
f 42//109 10//109 9//109
f 10//110 42//110 39//110
f 43//111 40//111 39//111
f 12//112 44//112 41//112
f 45//113 42//113 41//113
f 43//114 42//114 46//114
f 45//115 44//115 48//115
f 45//116 49//116 46//116
f 50//117 47//117 46//117
f 50//118 49//118 51//118
f 17//119 8//119 40//119
f 43//120 54//120 53//120
f 54//121 18//121 17//121
f 19//122 18//122 54//122
f 56//123 54//123 43//123
f 50//124 57//124 56//124
f 55//125 54//125 56//125
f 58//126 57//126 50//126
f 26//127 59//127 44//127
f 28//128 60//128 59//128
f 61//129 60//129 28//129
f 31//130 62//130 61//130
f 63//131 62//131 31//131
f 59//132 64//132 48//132
f 65//133 49//133 48//133
f 67//134 64//134 59//134
f 67//135 68//135 65//135
f 61//136 68//136 67//136
f 68//137 69//137 66//137
f 70//138 68//138 61//138
f 70//139 71//139 69//139
f 63//140 71//140 70//140
f 72//141 51//141 49//141
f 73//142 52//142 51//142
f 66//143 73//143 72//143
f 36//144 19//144 55//144
f 37//145 36//145 74//145
f 38//146 76//146 63//146
f 38//147 37//147 75//147
f 77//148 74//148 55//148
f 69//149 78//149 77//149
f 78//150 75//150 74//150
f 79//151 78//151 69//151
f 79//152 71//152 63//152
f 79//153 76//153 75//153
f 73//154 80//154 58//154
f 80//155 73//155 66//155
f 77//156 57//156 58//156
