# Blender 4.0.2
# www.blender.org
mtllib 지형5.mtl
o 아이코스피어.004
v -190.450562 -68.017578 -2.793788
v -190.589966 -69.156425 -2.673230
v -130.022873 -87.343369 64.388641
v -135.557938 -35.690178 70.856186
v -144.924988 -142.356003 22.000360
v -170.765457 -105.042030 36.444294
v -164.618637 -43.019093 24.051376
v -66.264214 -76.086716 123.159691
v -65.919769 -52.903107 123.296898
v -85.258331 -152.115341 79.222580
v -101.562180 -105.638069 100.757629
v -95.053513 -32.640347 110.679405
v -65.679581 -196.419205 16.635626
v -103.435692 -170.944534 41.716526
v -127.202217 -129.217209 57.790443
v -33.267811 -78.676270 126.419029
v -36.849079 -32.404320 136.588074
v -21.541603 -183.681366 47.462315
v -39.305515 -162.886703 73.598007
v -33.445374 -111.039894 118.148895
v -56.939663 -15.692296 119.985321
v -35.447334 -204.448578 30.281662
v -56.961819 -184.495911 51.207920
v -129.906464 -7.893343 64.924065
v -137.969147 -4.070771 31.126522
v -98.160515 -0.663474 81.425278
v -98.702888 -2.581759 32.028931
v -16.744108 -3.646782 131.097244
v -36.195694 0.193238 102.547142
v -20.897514 -2.174759 42.675365
v -191.539795 -68.674904 -11.244328
v -191.459290 -67.940750 -11.223451
v -134.603577 -134.943481 -30.569071
v -183.158615 -96.425552 -35.582237
v -181.599518 -40.022793 -35.216606
v -124.713875 -125.977310 -60.488426
v -144.251129 -91.360420 -91.812714
v -155.890793 -34.443600 -100.023560
v -122.337463 -62.212261 -118.330513
v -128.740723 -34.368305 -127.284492
v -70.901695 -205.247391 -32.455826
v -101.305794 -167.661301 -30.969641
v -68.057655 -201.739456 -66.677711
v -92.869110 -158.245316 -79.339035
v -95.471191 -106.733978 -108.877296
v -93.876701 -71.528030 -118.841522
v -99.864746 -34.059452 -142.315445
v -32.567028 -244.084274 -33.602859
v -32.951408 -218.199036 -75.600197
v -27.762222 -152.390106 -99.082542
v -46.900078 -126.430893 -127.483849
v -3.601705 -127.208214 -119.549576
v -28.756203 -102.117363 -136.252640
v -33.963932 -34.452488 -161.361816
v -163.882492 -2.018110 -38.773094
v -132.573456 -9.880574 -97.299469
v -124.220375 -12.400077 -123.125687
v -109.300514 -0.815807 -34.648136
v -99.201454 -1.768403 -99.429436
v -98.856728 -4.704536 -134.443649
v -51.104836 -2.008540 -16.849682
v -34.148155 -5.220796 -98.030502
v -34.168755 -3.981713 -136.856293
v 17.158850 -68.402672 114.196762
v 39.534149 -37.630241 144.048630
v -3.890957 -184.072678 47.198936
v 18.383059 -150.208237 60.461498
v 32.189178 -89.616280 102.157448
v 54.650097 -54.960056 114.306297
v 27.716686 -217.524643 29.927010
v 35.237259 -173.194580 37.501640
v 66.285767 -17.570284 130.139786
v 56.178150 -124.056305 53.501873
v 90.581306 -90.784233 77.010284
v 98.999947 -37.852970 114.567863
v 57.355473 -194.300751 -0.662669
v 61.862701 -147.478867 15.800575
v 107.607384 -106.746216 28.589764
v 120.608482 -64.398163 59.480396
v 134.821976 -33.839825 69.682411
v 125.018921 -74.125854 29.268604
v 150.256287 -33.847767 33.726616
v 32.491634 -5.090241 128.483673
v 33.105022 1.290737 99.093094
v 50.768337 0.014125 34.922989
v 61.196827 -9.910389 121.995865
v 91.816605 -0.627101 91.744255
v 99.770660 5.643360 32.774960
v 123.038361 -10.006306 61.030449
v 132.485428 -3.833177 31.398714
v 36.970524 -229.921875 -33.441387
v 51.875504 -187.961624 -48.652519
v 14.881187 -217.124329 -73.926178
v 31.172531 -161.904312 -97.169685
v 46.248459 -124.417648 -122.523422
v 57.968758 -14.579267 -132.578842
v 3.458887 -126.781807 -119.376076
v 28.123404 -102.069572 -135.634262
v 37.799843 -30.074024 -134.313110
v 59.259857 -196.188110 -10.865334
v 86.694969 -170.867432 -35.202690
v 123.175156 -121.224365 -35.234070
v 81.643372 -152.216110 -84.189262
v 94.368820 -103.578300 -95.664452
v 100.539154 -26.808502 -121.828842
v 64.260857 -80.391716 -122.199791
v 69.968674 -45.186966 -131.011597
v 135.322189 -84.937485 -33.303585
v 159.430817 -33.731922 -33.878922
v 121.823807 -73.571060 -64.800560
v 137.390701 -34.264336 -77.329483
v 25.483068 -2.286070 -44.010792
v 38.622360 -3.582879 -111.031143
v 20.023533 -15.622564 -148.680878
v 84.875092 2.652753 -31.586012
v 100.087067 6.171903 -92.025185
v 141.646103 3.439199 -33.434864
v 133.007690 -3.695895 -73.133606
vn -0.8280 -0.1562 0.5385
vn -0.7910 0.1943 0.5802
vn -0.3971 0.0005 0.9178
vn -0.7906 -0.0127 0.6123
vn -0.5947 -0.5002 0.6294
vn -0.6380 -0.5649 0.5233
vn -0.5072 -0.1674 0.8454
vn -0.2683 -0.2265 0.9363
vn -0.0585 -0.6468 0.7604
vn -0.2573 -0.3696 0.8929
vn -0.5203 0.1995 0.8304
vn 0.0866 -0.7501 0.6556
vn -0.3959 -0.8328 0.3870
vn -0.3354 -0.7667 0.5474
vn -0.9367 0.2440 0.2511
vn -0.6295 0.4903 0.6028
vn -0.2042 0.9783 -0.0357
vn -0.3577 0.8618 0.3596
vn -0.1911 0.8281 0.5270
vn -0.0003 0.9992 -0.0396
vn 0.9839 -0.1330 -0.1190
vn -0.6223 -0.7827 0.0134
vn -0.9034 -0.4024 0.1478
vn -0.9582 0.1126 -0.2629
vn -0.8041 0.5358 0.2575
vn -0.5477 -0.7099 -0.4429
vn -0.8958 -0.2374 -0.3758
vn -0.6596 -0.3633 -0.6580
vn -0.5828 -0.8109 -0.0537
vn -0.6832 -0.6925 -0.2318
vn -0.8097 -0.5332 -0.2450
vn -0.6427 -0.6491 -0.4070
vn -0.4192 -0.7278 -0.5428
vn -0.4149 -0.4216 -0.8063
vn -0.4269 -0.3643 -0.8276
vn -0.6946 -0.6915 0.1982
vn -0.7076 -0.6946 -0.1300
vn -0.2344 -0.3926 -0.8893
vn -0.4736 -0.4560 -0.7535
vn 0.1547 -0.4353 -0.8869
vn -0.4276 -0.2282 -0.8747
vn -0.2362 -0.5427 -0.8060
vn -0.8091 0.4965 0.3145
vn -0.6324 0.6475 -0.4253
vn -0.9142 0.2487 -0.3200
vn -0.0386 0.9987 0.0326
vn -0.2390 0.9697 -0.0515
vn -0.4487 0.2545 -0.8567
vn -0.3228 0.9429 -0.0822
vn -0.0060 1.0000 0.0059
vn 0.0306 0.9990 -0.0331
vn -0.0389 0.2601 -0.9648
vn -0.0100 0.9994 0.0319
vn -0.1179 -0.6460 0.7542
vn 0.2961 -0.5108 0.8071
vn 0.3669 -0.5826 0.7252
vn 0.2745 -0.2395 0.9313
vn 0.1441 -0.4092 0.9010
vn -0.0026 -0.6364 0.7714
vn 0.2895 -0.2087 0.9341
vn 0.2612 -0.7224 0.6402
vn 0.2220 -0.5875 0.7782
vn 0.6556 -0.4582 0.6002
vn 0.7547 -0.2811 0.5928
vn 0.4499 -0.4440 0.7748
vn 0.4865 -0.7074 0.5128
vn 0.6994 -0.4968 0.5138
vn 0.7244 -0.5374 0.4319
vn 0.7970 -0.5312 0.2874
vn 0.0605 0.4413 0.8953
vn 0.0399 0.9763 0.2128
vn -0.0337 0.9990 -0.0291
vn 0.2598 0.7791 0.5705
vn 0.6046 0.4979 0.6217
vn 0.0756 0.9292 0.3617
vn -0.1097 0.9898 0.0905
vn 0.6725 0.5227 0.5240
vn 0.7889 0.5129 0.3385
vn 0.2780 0.9189 0.2800
vn -0.1711 -0.8406 0.5138
vn 0.0375 -0.8505 -0.5246
vn 0.7175 -0.4482 -0.5332
vn 0.0405 -0.3386 -0.9400
vn 0.0584 -0.6628 -0.7465
vn -0.0309 -0.5514 -0.8337
vn 0.0522 -0.5166 -0.8546
vn 0.0105 -0.3472 -0.9377
vn 0.7369 -0.6350 0.2318
vn 0.7676 -0.5892 0.2523
vn 0.8765 -0.4054 -0.2596
vn 0.6715 -0.4931 0.5531
vn 0.2912 -0.7855 -0.5461
vn 0.7699 -0.5659 -0.2949
vn 0.3051 -0.6147 -0.7274
vn 0.4313 -0.1700 -0.8860
vn 0.4775 -0.3176 -0.8193
vn 0.3651 -0.0320 -0.9304
vn 0.2585 0.0520 -0.9646
vn 0.9021 -0.3175 0.2921
vn 0.8841 -0.4138 0.2171
vn 0.8351 -0.2727 -0.4777
vn 0.7933 -0.3788 -0.4767
vn 0.8292 -0.2389 -0.5054
vn -0.0325 0.9993 -0.0187
vn -0.0269 0.9993 -0.0246
vn 0.3693 -0.3861 -0.8453
vn -0.0354 0.6262 -0.7789
vn -0.0702 0.9597 -0.2722
vn -0.1150 0.9932 -0.0195
vn -0.0006 0.8905 -0.4550
vn -0.0901 0.9953 0.0353
vn 0.8507 0.5127 0.1163
vn -0.0102 0.9939 0.1100
vn 0.8752 0.1867 -0.4462
vn 0.7157 0.4737 -0.5133
vn -0.0193 0.9848 -0.1728
vn -0.6138 0.2127 0.7602
vn 0.7814 -0.1595 -0.6033
vn -0.4892 -0.0745 0.8690
vn -0.6855 -0.1623 0.7097
vn -0.5985 -0.5611 0.5718
vn -0.5949 -0.6132 0.5197
vn -0.8131 -0.1437 0.5641
vn -0.0986 -0.0044 0.9951
vn -0.2527 -0.4783 0.8410
vn -0.1143 -0.2454 0.9627
vn -0.2992 0.1560 0.9414
vn 0.0932 -0.6710 0.7356
vn -0.3297 -0.8638 0.3810
vn -0.0730 -0.6882 0.7218
vn -0.7843 0.4613 0.4147
vn -0.4920 0.2762 0.8256
vn -0.0404 0.9917 0.1218
vn -0.3549 0.4087 0.8408
vn -0.4287 0.5868 0.6870
vn 0.0001 0.9992 -0.0388
vn -0.9873 0.1049 0.1191
vn -0.8393 -0.4907 -0.2340
vn -0.9223 -0.3690 0.1146
vn -0.9348 0.0281 -0.3540
vn -0.8833 0.4433 0.1528
vn -0.5437 -0.7375 -0.4007
vn -0.8232 0.0264 -0.5672
vn -0.6076 -0.2338 -0.7591
vn -0.7592 -0.6217 0.1926
vn -0.5491 -0.8340 -0.0538
vn -0.7736 -0.6207 -0.1279
vn -0.7582 -0.6024 -0.2495
vn -0.7219 -0.3713 -0.5839
vn -0.1044 -0.2665 -0.9582
vn -0.1924 -0.5429 -0.8175
vn -0.4174 -0.7805 0.4654
vn -0.4701 -0.7533 -0.4600
vn -0.3606 -0.2881 -0.8871
vn -0.1200 -0.7717 -0.6245
vn 0.1181 -0.6921 -0.7121
vn -0.3058 -0.1128 -0.9454
vn -0.3908 -0.3465 -0.8528
vn -0.8631 0.4275 0.2689
vn -0.8716 0.3770 -0.3133
vn -0.5672 0.6009 -0.5632
vn -0.0249 0.9989 0.0386
vn -0.0113 0.9902 -0.1391
vn -0.4561 0.2451 -0.8555
vn -0.2430 0.9547 -0.1717
vn 0.0130 0.9996 0.0244
vn 0.0531 0.9986 -0.0064
vn -0.2164 0.6110 -0.7615
vn 0.0546 0.9951 -0.0829
vn 0.2672 -0.1871 0.9453
vn -0.0082 -0.7852 0.6192
vn 0.3016 -0.6408 0.7060
vn 0.3148 -0.2899 0.9038
vn 0.2725 -0.7647 0.5840
vn -0.1057 -0.5332 0.8394
vn 0.3397 -0.5282 0.7782
vn 0.5096 -0.5635 0.6502
vn 0.3347 -0.4975 0.8003
vn 0.1593 -0.4266 0.8903
vn 0.7806 -0.2316 0.5805
vn 0.7841 -0.4672 0.4085
vn 0.4657 -0.7787 0.4205
vn 0.7162 -0.4760 0.5103
vn 0.8468 -0.4576 0.2710
vn 0.8020 -0.4880 0.3444
vn -0.0781 0.2394 0.9678
vn -0.0087 0.9902 0.1391
vn -0.0180 0.9989 -0.0441
vn 0.1227 0.4497 0.8847
vn 0.3025 0.7813 0.5459
vn 0.2082 0.9549 0.2117
vn 0.0312 0.9994 -0.0113
vn 0.6644 0.4796 0.5731
vn 0.7918 0.4964 0.3559
vn 0.4182 0.8956 0.1516
vn 0.1944 -0.9569 0.2156
vn 0.1849 -0.9036 -0.3865
vn 0.7165 -0.4394 -0.5418
vn -0.0313 -0.3799 -0.9245
vn -0.0654 -0.5696 -0.8193
vn -0.0335 -0.5258 -0.8500
vn 0.0095 -0.5562 -0.8310
vn 0.3542 -0.0304 -0.9347
vn 0.7201 -0.6457 0.2539
vn 0.8158 -0.2601 0.5165
vn 0.5075 -0.8160 -0.2768
vn 0.5816 -0.7512 0.3123
vn 0.5183 -0.7801 -0.3505
vn 0.8126 -0.3265 -0.4827
vn 0.5645 -0.3266 -0.7581
vn 0.5458 -0.2174 -0.8092
vn 0.4285 -0.2842 -0.8577
vn -0.0135 -0.2407 -0.9705
vn 0.0959 -0.0134 -0.9953
vn 0.8584 -0.4628 0.2213
vn 0.8364 -0.5365 0.1126
vn 0.8500 -0.2602 -0.4581
vn 0.8009 -0.4449 -0.4008
vn 0.6483 -0.4520 -0.6126
vn 0.0039 1.0000 0.0008
vn -0.0112 0.9991 -0.0419
vn 0.1266 0.9250 -0.3583
vn 0.3429 -0.4157 -0.8424
vn 0.2164 0.9758 0.0310
vn -0.0823 0.9966 -0.0027
vn 0.3553 0.6294 -0.6911
vn -0.1424 0.9887 -0.0470
vn 0.8892 0.4234 0.1731
vn 0.2724 0.9561 -0.1075
vn 0.8688 0.4188 -0.2643
vn 0.5308 0.1895 -0.8260
vn 0.2252 0.9677 0.1130
s 0
f 7//1 3//1 4//1
f 7//2 1//2 6//2
f 12//3 8//3 9//3
f 12//4 3//4 11//4
f 15//5 10//5 11//5
f 15//6 5//6 14//6
f 15//7 3//7 6//7
f 9//8 16//8 17//8
f 20//9 10//9 19//9
f 20//10 8//10 11//10
f 21//11 9//11 17//11
f 23//12 18//12 19//12
f 23//13 13//13 22//13
f 23//14 10//14 14//14
f 25//15 4//15 24//15
f 26//16 4//16 12//16
f 27//17 24//17 26//17
f 21//18 28//18 29//18
f 26//19 21//19 29//19
f 30//20 26//20 29//20
f 32//21 1//21 2//21
f 33//22 6//22 34//22
f 34//23 1//23 31//23
f 35//24 31//24 32//24
f 35//25 2//25 7//25
f 36//26 34//26 37//26
f 37//27 35//27 38//27
f 39//28 38//28 40//28
f 42//29 13//29 14//29
f 42//30 5//30 33//30
f 43//31 42//31 44//31
f 36//32 42//32 33//32
f 45//33 36//33 37//33
f 39//34 45//34 37//34
f 47//35 39//35 40//35
f 48//36 13//36 41//36
f 43//37 48//37 41//37
f 50//38 43//38 44//38
f 51//39 44//39 45//39
f 52//40 51//40 53//40
f 46//41 51//41 45//41
f 54//42 46//42 47//42
f 55//43 7//43 25//43
f 38//44 55//44 56//44
f 40//45 56//45 57//45
f 58//46 25//46 27//46
f 56//47 58//47 59//47
f 57//48 47//48 40//48
f 57//49 59//49 60//49
f 61//50 27//50 30//50
f 62//51 58//51 61//51
f 63//52 47//52 60//52
f 60//53 62//53 63//53
f 17//54 64//54 65//54
f 19//55 66//55 67//55
f 20//56 67//56 68//56
f 20//57 64//57 16//57
f 69//58 64//58 68//58
f 22//59 66//59 18//59
f 71//60 66//60 70//60
f 68//61 73//61 74//61
f 69//62 74//62 75//62
f 69//63 72//63 65//63
f 71//64 76//64 77//64
f 71//65 73//65 67//65
f 78//66 73//66 77//66
f 75//67 79//67 80//67
f 78//68 79//68 74//68
f 82//69 79//69 81//69
f 28//70 65//70 83//70
f 84//71 28//71 83//71
f 30//72 84//72 85//72
f 83//73 72//73 86//73
f 87//74 72//74 75//74
f 84//75 86//75 87//75
f 85//76 87//76 88//76
f 87//77 80//77 89//77
f 82//78 89//78 80//78
f 88//79 89//79 90//79
f 48//80 70//80 22//80
f 93//81 48//81 49//81
f 93//82 92//82 91//82
f 50//83 93//83 49//83
f 97//84 50//84 52//84
f 97//85 95//85 94//85
f 53//86 97//86 52//86
f 54//87 98//87 53//87
f 91//88 76//88 70//88
f 101//89 76//89 100//89
f 92//90 100//90 91//90
f 102//91 77//91 101//91
f 103//92 92//92 94//92
f 103//93 102//93 101//93
f 95//94 103//94 94//94
f 106//95 95//95 98//95
f 106//96 105//96 104//96
f 99//97 106//97 98//97
f 107//98 96//98 105//98
f 108//99 78//99 102//99
f 109//100 81//100 108//100
f 110//101 102//101 104//101
f 110//102 109//102 108//102
f 105//103 110//103 104//103
f 112//104 30//104 85//104
f 62//105 112//105 113//105
f 114//106 96//106 99//106
f 114//107 54//107 63//107
f 114//108 62//108 113//108
f 115//109 85//109 88//109
f 116//110 96//110 113//110
f 116//111 112//111 115//111
f 109//112 90//112 82//112
f 115//113 90//113 117//113
f 118//114 109//114 111//114
f 116//115 111//115 105//115
f 118//116 115//116 117//116
f 7//117 6//117 3//117
f 7//118 2//118 1//118
f 12//119 11//119 8//119
f 12//120 4//120 3//120
f 15//121 14//121 10//121
f 15//122 6//122 5//122
f 15//123 11//123 3//123
f 9//124 8//124 16//124
f 20//125 11//125 10//125
f 20//126 16//126 8//126
f 21//127 12//127 9//127
f 23//128 22//128 18//128
f 23//129 14//129 13//129
f 23//130 19//130 10//130
f 25//131 7//131 4//131
f 26//132 24//132 4//132
f 27//133 25//133 24//133
f 21//134 17//134 28//134
f 26//135 12//135 21//135
f 30//136 27//136 26//136
f 32//137 31//137 1//137
f 33//138 5//138 6//138
f 34//139 6//139 1//139
f 35//140 34//140 31//140
f 35//141 32//141 2//141
f 36//142 33//142 34//142
f 37//143 34//143 35//143
f 39//144 37//144 38//144
f 42//145 41//145 13//145
f 42//146 14//146 5//146
f 43//147 41//147 42//147
f 36//148 44//148 42//148
f 45//149 44//149 36//149
f 39//150 46//150 45//150
f 47//151 46//151 39//151
f 48//152 22//152 13//152
f 43//153 49//153 48//153
f 50//154 49//154 43//154
f 51//155 50//155 44//155
f 52//156 50//156 51//156
f 46//157 53//157 51//157
f 54//158 53//158 46//158
f 55//159 35//159 7//159
f 38//160 35//160 55//160
f 40//161 38//161 56//161
f 58//162 55//162 25//162
f 56//163 55//163 58//163
f 57//164 60//164 47//164
f 57//165 56//165 59//165
f 61//166 58//166 27//166
f 62//167 59//167 58//167
f 63//168 54//168 47//168
f 60//169 59//169 62//169
f 17//170 16//170 64//170
f 19//171 18//171 66//171
f 20//172 19//172 67//172
f 20//173 68//173 64//173
f 69//174 65//174 64//174
f 22//175 70//175 66//175
f 71//176 67//176 66//176
f 68//177 67//177 73//177
f 69//178 68//178 74//178
f 69//179 75//179 72//179
f 71//180 70//180 76//180
f 71//181 77//181 73//181
f 78//182 74//182 73//182
f 75//183 74//183 79//183
f 78//184 81//184 79//184
f 82//185 80//185 79//185
f 28//186 17//186 65//186
f 84//187 29//187 28//187
f 30//188 29//188 84//188
f 83//189 65//189 72//189
f 87//190 86//190 72//190
f 84//191 83//191 86//191
f 85//192 84//192 87//192
f 87//193 75//193 80//193
f 82//194 90//194 89//194
f 88//195 87//195 89//195
f 48//196 91//196 70//196
f 93//197 91//197 48//197
f 93//198 94//198 92//198
f 50//199 94//199 93//199
f 97//200 94//200 50//200
f 97//201 98//201 95//201
f 53//202 98//202 97//202
f 54//203 99//203 98//203
f 91//204 100//204 76//204
f 101//205 77//205 76//205
f 92//206 101//206 100//206
f 102//207 78//207 77//207
f 103//208 101//208 92//208
f 103//209 104//209 102//209
f 95//210 104//210 103//210
f 106//211 104//211 95//211
f 106//212 107//212 105//212
f 99//213 107//213 106//213
f 107//214 99//214 96//214
f 108//215 81//215 78//215
f 109//216 82//216 81//216
f 110//217 108//217 102//217
f 110//218 111//218 109//218
f 105//219 111//219 110//219
f 112//220 61//220 30//220
f 62//221 61//221 112//221
f 114//222 113//222 96//222
f 114//223 99//223 54//223
f 114//224 63//224 62//224
f 115//225 112//225 85//225
f 116//226 105//226 96//226
f 116//227 113//227 112//227
f 109//228 117//228 90//228
f 115//229 88//229 90//229
f 118//230 117//230 109//230
f 116//231 118//231 111//231
f 118//232 116//232 115//232
